<svg width="1143" height="577" viewBox="0 0 1143 577" fill="none" xmlns="http://www.w3.org/2000/svg">
<path d="M92.1562 347.37C92.1562 347.37 -12.8782 340.209 2.16558 280.925C7.05933 258.082 20.0187 260.167 25.1843 262.071C27.2687 262.886 29.7156 262.614 31.4374 261.164C33.3406 259.623 34.2468 257.085 28.7187 253.368C18.5687 246.388 -12.4251 210.129 12.3156 176.499C34.1562 146.947 97.5937 150.845 124.147 157.916C129.856 159.457 135.022 162.358 139.009 166.709C143.994 172.057 144.537 176.771 143.269 188.736C144.537 197.71 147.891 205.597 161.122 197.71C169.278 192.725 178.25 189.461 197.644 189.371C204.441 189.915 215.678 189.824 229.544 196.804C242.141 204.872 257.456 202.152 271.866 197.982C287.091 193.541 297.784 189.461 315.275 186.198C335.303 182.481 350.619 188.192 358.956 194.266C386.144 214.027 384.15 196.441 426.2 183.207C457.828 173.326 481.119 182.935 497.794 191.546C516.825 200.611 526.613 198.254 540.931 194.538C555.25 190.821 584.431 189.461 597.844 195.897C611.256 202.333 640.438 211.217 646.419 183.841C649.5 169.972 664 162.358 680.766 162.539C697.531 162.72 711.216 162.63 720.459 178.312C729.703 193.994 739.853 185.292 743.569 177.405C747.284 169.519 752.813 163.717 765.319 162.448C777.825 161.179 795.497 165.349 799.122 177.858C803.291 192.181 803.925 224.542 816.25 210.401C827.034 198.073 853.859 193.45 869.084 195.263C884.309 197.166 894.459 206.05 896.816 207.5C899.172 208.86 902.163 219.466 914.669 195.353C927.175 171.241 967.684 171.785 982.456 174.595C997.228 177.405 1003.84 187.195 1008.83 187.195C1017.62 187.195 1020.88 178.493 1042.09 176.771C1063.84 178.584 1034.2 129.271 1083.32 129.271C1117.58 129.271 1142.14 141.327 1142.14 165.349C1143.04 189.461 1142.14 262.977 1142.14 262.977C1142.14 262.977 1145.4 333.048 1096.83 332.957C1048.25 332.867 1019.98 338.396 995.506 308.301C985.809 295.338 983.634 323.621 967.775 332.957C959.528 337.762 942.038 337.218 930.709 336.221C918.747 335.133 911.225 334.77 910.863 344.016C910.409 358.339 912.584 363.959 938.956 368.129C965.328 372.299 957.625 430.313 953.003 443.911C948.381 457.508 925.725 530.933 897.903 550.876C870.081 570.818 839.088 585.684 814.619 569.005C790.059 552.326 821.778 520.599 792.869 530.57C769.216 538.819 749.822 521.777 743.841 513.528C737.859 505.279 728.525 524.225 713.753 526.582C698.981 528.939 648.956 531.658 635.091 518.242C627.297 514.616 626.119 529.845 610.984 536.644C601.016 541.086 574.009 540.542 561.775 527.579C549.45 514.616 533.319 557.674 484.2 546.524C435.172 535.375 434.991 510.9 434.991 510.9C434.991 510.9 433.813 497.937 412.063 521.052C395.388 538.819 361.675 535.556 346.994 533.109C343.459 532.565 340.106 531.477 336.753 530.117C332.766 528.485 325.697 527.126 319.988 534.015C311.559 544.168 292.709 591.033 221.841 566.739C166.106 547.612 175.531 519.058 178.341 515.341C181.15 511.625 190.847 489.597 208.428 495.218C226.009 500.747 209.425 489.235 199.728 481.802C190.031 474.368 170.094 463.581 180.697 426.053C193.656 394.145 219.575 387.618 226.009 386.712C232.444 385.805 216.766 375.562 203.081 380.729C189.397 385.805 196.375 396.955 166.287 394.598C136.2 392.241 119.978 382.089 119.525 368.22C118.981 354.078 119.344 348.368 92.1562 347.37Z" fill="black"/>
<path d="M914.578 163.808C874.794 191.637 820.147 181.938 792.325 142.143C787.522 135.254 783.806 127.911 781.269 120.297C780.091 117.034 779.184 113.68 778.459 110.326C771.481 77.9642 783.262 43.2459 810.994 22.0343C811.991 21.3091 812.988 20.4933 813.984 19.8587C816.975 17.7738 820.056 15.8702 823.137 14.2385C834.012 8.43705 845.703 5.17372 857.484 4.26724C858.209 4.17659 859.025 4.17659 859.75 4.08594C872.256 3.45141 884.853 5.53631 896.544 10.1594C912.041 16.2328 925.997 26.8386 936.238 41.5236C941.856 49.5913 946.025 58.3842 948.653 67.3583C958.803 102.53 946.206 141.69 914.578 163.808Z" fill="#FFDA22"/>
<g opacity="0.35">
<g opacity="0.35">
<g opacity="0.35">
<g opacity="0.35">
<path opacity="0.35" d="M776.738 98.5412C777.1 101.351 777.553 104.161 778.097 106.972C778.822 110.326 779.728 113.679 780.906 116.943C783.534 124.557 787.159 131.809 791.963 138.789C819.784 178.493 874.431 188.192 914.216 160.454C940.95 141.78 954.091 110.96 951.372 80.5929C951.1 77.8735 950.647 75.154 950.103 72.4346C950.194 100.264 937.144 127.639 912.584 144.772C872.8 172.601 818.153 162.901 790.331 123.107C785.528 116.218 781.813 108.875 779.184 101.261C778.006 97.9974 777.1 94.6434 776.375 91.2894C776.284 91.0174 776.284 90.7455 776.194 90.4736C776.194 93.9182 776.466 97.4535 776.828 100.898C776.919 100.173 776.828 99.3571 776.738 98.5412Z" fill="#371A45"/>
</g>
</g>
</g>
</g>
<g opacity="0.4">
<g opacity="0.4">
<g opacity="0.4">
<g opacity="0.4">
<path opacity="0.4" d="M935.422 40.3452C925.272 26.2947 911.678 16.0515 896.544 10.1594C884.853 5.53631 872.347 3.45141 859.75 4.08594C859.025 4.08594 858.209 4.17659 857.484 4.26724C845.703 5.17372 834.012 8.43705 823.137 14.2385C819.966 15.8702 816.975 17.7738 813.984 19.8587C812.987 20.5839 811.991 21.3091 810.994 22.0343C783.262 43.1553 771.481 77.9642 778.459 110.326C779.184 113.68 780.091 117.034 781.269 120.297C781.541 121.022 781.813 121.747 782.084 122.563C772.841 87.3916 785.8 48.5942 817.337 26.5667C820.328 24.4818 823.409 22.5782 826.581 20.9465C826.672 21.2184 826.672 21.3997 826.762 21.6717C828.575 26.5667 836.188 28.289 843.8 25.5696C851.413 22.7595 856.125 16.5954 854.403 11.6097C883.947 6.80539 914.759 17.1393 935.422 40.3452Z" fill="white"/>
</g>
</g>
</g>
</g>
<path d="M864.825 182.572C859.478 182.572 854.222 182.119 848.875 181.122C837.275 179.037 826.309 174.867 816.341 168.612C806.009 162.176 797.219 153.746 790.241 143.684C783.172 133.622 778.369 122.472 775.831 110.598C773.384 99.0852 773.203 87.3916 775.197 75.7886C777.281 64.1857 781.45 53.2172 787.703 43.246C794.137 32.9121 802.566 24.1192 812.625 17.1393C822.684 10.0687 833.831 5.26438 845.703 2.72623C857.212 0.278732 868.903 0.0974381 880.503 2.0917C892.103 4.1766 903.069 8.34641 913.038 14.6011C923.369 21.0372 932.159 29.4674 939.137 39.5294C946.206 49.5913 951.009 60.741 953.547 72.6159C955.994 84.1283 956.175 95.8219 954.181 107.425C952.097 119.028 947.928 129.996 941.675 139.968C935.241 150.301 926.813 159.094 916.753 166.074C906.694 173.145 895.547 177.949 883.675 180.487C877.513 181.938 871.169 182.572 864.825 182.572ZM864.553 6.89604C847.334 6.89604 830.569 12.1536 816.159 22.2156C797.581 35.1783 785.256 54.577 781.269 76.8764C777.281 99.1759 782.266 121.657 795.225 140.239C808.184 158.822 827.578 171.15 849.872 175.139C854.856 176.045 859.841 176.499 864.825 176.499C882.044 176.499 898.809 171.241 913.219 161.179C931.797 148.217 944.122 128.818 948.109 106.518C952.097 84.2189 947.112 61.7382 934.153 43.1553C921.194 24.5724 901.8 12.2443 879.506 8.25576C874.522 7.34928 869.538 6.89604 864.553 6.89604Z" fill="#371A45"/>
<g opacity="0.35">
<g opacity="0.35">
<g opacity="0.35">
<g opacity="0.35">
<path opacity="0.35" d="M841.703 52.0901C852.16 49.5477 859.342 42.1629 857.746 35.5955C856.15 29.0282 846.38 25.7654 835.924 28.3077C825.467 30.8501 818.285 38.235 819.88 44.8023C821.476 51.3696 831.247 54.6325 841.703 52.0901Z" fill="#371A45"/>
</g>
</g>
</g>
</g>
<path d="M841.358 51.4925C850.501 49.2694 857.099 44.1152 856.094 39.9802C855.089 35.8452 846.862 34.2953 837.719 36.5184C828.576 38.7415 821.978 43.8958 822.983 48.0307C823.988 52.1657 832.215 53.7156 841.358 51.4925Z" fill="#FFDA22"/>
<path d="M854.222 29.4675C855.038 29.9208 855.763 30.4647 856.488 31.0992C856.85 31.4618 857.122 31.8244 857.484 32.187C857.756 32.5496 858.028 33.0028 858.3 33.3654C858.572 33.8187 858.753 34.2719 858.844 34.7251L858.934 35.0877C858.934 35.1784 859.025 35.3597 859.025 35.4503L859.116 35.8129C859.116 35.9036 859.116 36.0848 859.206 36.1755C859.388 37.1726 859.297 38.1698 859.206 39.1669C859.025 40.164 858.753 41.0705 858.391 41.977C858.028 42.8835 857.484 43.6993 857.031 44.4245C856.487 45.2403 855.853 45.9655 855.219 46.6C854.856 46.9626 854.584 47.2346 854.222 47.5972L853.678 48.0504C853.497 48.2317 853.316 48.3223 853.134 48.5036C852.409 49.0475 851.684 49.6821 850.869 50.1353C850.506 50.4073 850.053 50.5885 849.691 50.8605C849.328 51.0418 848.875 51.3137 848.512 51.495C846.881 52.3109 845.159 53.036 843.437 53.5799C842.984 53.6706 842.531 53.8519 842.078 53.9425C841.625 54.0332 841.172 54.2145 840.719 54.2145C839.812 54.3958 838.906 54.5771 838 54.6677C836.187 54.849 834.375 54.9397 832.472 54.849C830.659 54.7584 828.756 54.3958 826.944 53.7612C825.131 53.1267 823.409 52.3109 821.869 51.0418C821.144 50.4073 820.419 49.6821 819.784 48.7756C819.241 47.9598 818.787 46.9626 818.516 45.9655C818.244 44.9684 818.153 43.8806 818.244 42.8835C818.334 41.8863 818.516 40.8892 818.878 39.8921C819.241 38.9856 819.694 38.0791 820.147 37.2633C820.238 37.082 820.419 36.9007 820.509 36.6287L820.962 36.0849L821.416 35.541C821.597 35.3597 821.687 35.1784 821.869 34.9971C822.503 34.2719 823.138 33.6374 823.863 33.0935C824.588 32.5496 825.313 32.0057 826.038 31.4618C826.763 31.0086 827.578 30.5553 828.394 30.1021C829.209 29.7395 830.025 29.3769 830.841 29.0143C832.472 28.3798 834.194 27.9265 835.916 27.5639C836.187 27.4733 836.55 27.7452 836.55 28.0172C836.641 28.2891 836.459 28.561 836.187 28.6517C835.372 28.9236 834.556 29.1956 833.831 29.5582C833.469 29.7395 833.016 29.9208 832.653 30.1021C832.472 30.1927 832.291 30.2834 832.109 30.374C831.928 30.4647 831.747 30.5553 831.566 30.646L831.022 30.9179L830.478 31.1898L830.206 31.3711L829.934 31.5524C829.753 31.6431 829.572 31.7337 829.391 31.915C828.666 32.3683 828.031 32.8215 827.397 33.3654C826.763 33.9093 826.128 34.3625 825.584 34.9971C825.041 35.541 824.497 36.1755 823.953 36.81C822.956 38.0791 822.141 39.4388 821.778 40.7986C821.597 41.5237 821.416 42.2489 821.416 42.8835C821.416 43.6086 821.506 44.2432 821.687 44.8777C822.141 46.1468 822.956 47.3252 824.044 48.141C825.222 49.0475 826.581 49.6821 828.031 50.1353C829.481 50.5885 831.112 50.8605 832.653 50.9511C834.284 51.0418 835.825 50.9511 837.456 50.7698C839.088 50.5885 840.628 50.2259 842.259 49.7727C842.622 49.6821 843.075 49.5914 843.437 49.4101C843.8 49.3195 844.163 49.1382 844.616 49.0475C845.341 48.7756 846.156 48.413 846.881 48.141C847.244 47.9597 847.606 47.7785 847.969 47.5972C848.331 47.4159 848.694 47.2346 849.056 46.9626C849.781 46.6 850.416 46.1468 851.05 45.6029C851.684 45.1497 852.319 44.6058 852.863 44.0619C853.406 43.518 853.95 42.9741 854.494 42.3396C854.947 41.705 855.4 41.0705 855.762 40.436C856.125 39.8014 856.397 39.0762 856.578 38.3511C856.759 37.6259 856.85 36.9007 856.85 36.1755V35.9035V35.6316C856.85 35.541 856.85 35.4503 856.85 35.3597L856.759 35.0877C856.669 34.7251 856.578 34.3625 856.397 33.9999C856.216 33.6374 856.125 33.2748 855.944 33.0028C855.763 32.6402 855.491 32.3683 855.309 32.0963C855.037 31.8244 854.766 31.4618 854.494 31.1898C854.222 30.9179 853.859 30.646 853.587 30.374C853.316 30.1021 853.225 29.7395 853.497 29.3769C853.497 29.3769 853.95 29.2862 854.222 29.4675Z" fill="#371A45"/>
<path d="M845.159 58.8375C844.525 59.3813 843.8 59.8346 843.165 60.1972C842.44 60.5598 841.715 60.9224 840.9 61.2849C839.359 61.9195 837.728 62.2821 836.097 62.4634C834.466 62.6447 832.744 62.6447 831.112 62.4634C829.481 62.2821 827.85 61.9195 826.219 61.4663C824.678 60.9224 823.137 60.2878 821.687 59.472C821.325 59.2907 820.962 59.0187 820.6 58.8375C820.237 58.5655 819.875 58.3842 819.603 58.1123C818.969 57.5684 818.334 57.0245 817.7 56.4806C816.522 55.3022 815.434 53.9425 814.8 52.3108C814.075 50.7698 813.712 49.0475 813.894 47.3251C813.894 47.0532 814.166 46.7812 814.528 46.7812C814.8 46.7812 814.981 46.9625 814.981 47.2345C815.706 50.1352 817.519 52.3108 819.694 54.0331C821.959 55.7554 824.587 57.0245 827.306 57.8403C830.025 58.6562 832.925 59.1094 835.825 59.1094C837.275 59.1094 838.725 59.0188 840.175 58.7468C840.9 58.6562 841.625 58.4749 842.35 58.2936C843.075 58.1123 843.8 57.931 844.525 57.659C844.887 57.5684 845.25 57.7497 845.431 58.1123C845.431 58.2936 845.34 58.6562 845.159 58.8375Z" fill="#371A45"/>
<g opacity="0.35">
<g opacity="0.35">
<g opacity="0.35">
<g opacity="0.35">
<path opacity="0.35" d="M809.1 124.172C815.788 123.208 819.965 113.789 818.429 103.135C816.894 92.4813 810.227 84.6264 803.539 85.5909C796.851 86.5553 792.674 95.9738 794.21 106.628C795.746 117.282 802.412 125.136 809.1 124.172Z" fill="#371A45"/>
</g>
</g>
</g>
</g>
<path d="M812.562 121.391C816.773 120.784 819.098 112.739 817.755 103.423C816.413 94.1074 811.911 87.0476 807.7 87.6549C803.489 88.2621 801.164 96.3065 802.506 105.622C803.849 114.938 808.351 121.998 812.562 121.391Z" fill="#FFDA22"/>
<path d="M796.947 88.57C797.491 87.8448 798.034 87.1196 798.759 86.4851C799.122 86.2131 799.484 85.8505 799.938 85.6692C800.391 85.3973 800.753 85.216 801.206 85.0347C801.659 84.8534 802.113 84.6721 802.566 84.5815L802.928 84.4908C803.019 84.4908 803.2 84.4908 803.291 84.4002L803.653 84.3095C803.744 84.3095 803.925 84.3095 804.016 84.3095C805.013 84.2189 806.009 84.4002 806.916 84.5815C807.912 84.8534 808.728 85.216 809.634 85.6692C810.45 86.1225 811.266 86.6664 811.991 87.3009C812.716 87.9354 813.35 88.57 813.984 89.2952C814.256 89.6578 814.619 90.0203 814.891 90.3829L815.344 90.9268C815.525 91.1081 815.616 91.2894 815.706 91.4707C816.25 92.1959 816.703 93.0117 817.156 93.8276C817.338 94.1902 817.519 94.6434 817.791 95.0966C817.972 95.5499 818.153 95.9125 818.334 96.3657C819.059 98.088 819.513 99.8103 819.875 101.623C819.966 102.077 820.056 102.53 820.147 102.983C820.238 103.436 820.328 103.89 820.328 104.343C820.419 105.249 820.509 106.156 820.509 107.062C820.509 108.875 820.509 110.779 820.147 112.592C819.875 114.405 819.331 116.218 818.606 117.94C817.791 119.662 816.794 121.385 815.344 122.744C814.619 123.47 813.803 124.104 812.897 124.557C811.991 125.011 810.994 125.373 809.906 125.554C808.909 125.736 807.822 125.736 806.825 125.554C805.828 125.373 804.831 125.101 803.925 124.648C803.019 124.195 802.203 123.651 801.478 123.107C801.297 122.926 801.116 122.835 800.934 122.654L800.391 122.2L799.938 121.747C799.756 121.566 799.666 121.385 799.484 121.203C798.85 120.478 798.306 119.753 797.762 119.028C797.219 118.303 796.766 117.487 796.403 116.671C796.041 115.855 795.588 115.039 795.316 114.223C795.044 113.408 794.681 112.501 794.5 111.685C794.047 109.963 793.684 108.241 793.594 106.428C793.594 106.156 793.775 105.884 794.137 105.793C794.409 105.793 794.681 105.974 794.772 106.246C794.953 107.062 795.225 107.878 795.497 108.694C795.587 109.056 795.769 109.51 795.859 109.872C795.95 110.054 796.041 110.235 796.041 110.507C796.131 110.688 796.222 110.869 796.313 111.051L796.584 111.595L796.856 112.138L796.947 112.41L797.128 112.682C797.219 112.864 797.309 113.045 797.4 113.226C797.762 113.951 798.216 114.677 798.578 115.402C799.031 116.127 799.484 116.762 800.028 117.396C800.572 118.031 801.116 118.665 801.659 119.209C802.838 120.297 804.106 121.203 805.466 121.747C806.1 122.019 806.825 122.2 807.55 122.291C808.275 122.382 808.909 122.291 809.544 122.2C810.903 121.929 812.081 121.203 813.078 120.116C814.075 119.028 814.891 117.759 815.434 116.308C815.978 114.858 816.431 113.317 816.703 111.776C816.975 110.235 817.066 108.603 816.975 106.972C816.884 105.34 816.794 103.708 816.431 102.167C816.341 101.805 816.25 101.351 816.159 100.989C816.069 100.626 815.978 100.173 815.888 99.8103C815.706 98.9945 815.434 98.2693 815.163 97.4535C815.072 97.0909 814.891 96.7283 814.709 96.3657C814.528 96.0031 814.438 95.6405 814.256 95.2779C813.894 94.5527 813.531 93.8276 813.169 93.193C812.806 92.4678 812.353 91.8333 811.809 91.1988C811.356 90.5642 810.813 90.0203 810.269 89.4765C809.725 88.9326 809.091 88.4793 808.456 88.0261C807.822 87.5728 807.187 87.2103 806.462 87.029C805.737 86.757 805.013 86.6664 804.288 86.5757H804.016H803.744C803.653 86.5757 803.563 86.5757 803.472 86.5757H803.2C802.838 86.6664 802.475 86.6664 802.113 86.757C801.75 86.8477 801.387 87.0289 801.025 87.1196C800.662 87.3009 800.3 87.4822 800.028 87.6635C799.666 87.8448 799.394 88.1167 799.122 88.3887C798.85 88.6606 798.487 88.9326 798.216 89.2045C797.944 89.4765 797.491 89.4765 797.219 89.2045C796.766 89.2045 796.766 88.8419 796.947 88.57Z" fill="#371A45"/>
<path d="M825.312 100.354C825.766 100.989 826.128 101.714 826.491 102.53C826.853 103.255 827.125 104.071 827.306 104.887C827.759 106.518 827.941 108.15 828.031 109.782C828.031 111.413 827.941 113.136 827.578 114.767C827.216 116.399 826.762 117.94 826.128 119.481C825.494 121.022 824.678 122.472 823.681 123.832C823.409 124.195 823.228 124.467 822.956 124.829C822.684 125.192 822.412 125.464 822.141 125.736C821.597 126.37 820.962 126.914 820.328 127.458C819.059 128.546 817.519 129.452 815.887 129.996C814.256 130.54 812.534 130.721 810.903 130.359C810.631 130.268 810.359 129.996 810.45 129.724C810.541 129.452 810.722 129.271 810.903 129.271C813.803 128.908 816.25 127.277 818.153 125.192C820.056 123.107 821.597 120.659 822.684 117.94C823.772 115.311 824.497 112.501 824.769 109.6C824.859 108.15 824.95 106.7 824.859 105.249C824.769 104.524 824.678 103.799 824.587 103.074C824.497 102.348 824.315 101.623 824.134 100.898C824.044 100.535 824.316 100.173 824.678 100.082C824.859 99.9916 825.131 100.173 825.312 100.354Z" fill="#371A45"/>
<g opacity="0.35">
<g opacity="0.35">
<g opacity="0.35">
<g opacity="0.35">
<path opacity="0.35" d="M876.698 101.867C885.455 99.5473 890.945 91.5856 888.959 84.0841C886.973 76.5827 878.263 72.3821 869.506 74.7018C860.748 77.0216 855.259 84.9832 857.245 92.4847C859.231 99.9861 867.94 104.187 876.698 101.867Z" fill="#371A45"/>
</g>
</g>
</g>
</g>
<path d="M883.437 94.3409C883.611 88.8367 878.237 84.1999 871.433 83.9844C864.63 83.7689 858.973 88.0563 858.799 93.5605C858.625 99.0648 863.999 103.702 870.802 103.917C877.606 104.133 883.262 99.8452 883.437 94.3409Z" fill="#FFDA22"/>
<path d="M877.059 101.714L877.603 101.442C877.784 101.351 877.966 101.261 878.147 101.17L878.691 100.898C878.872 100.807 879.053 100.717 879.234 100.626L879.778 100.354L880.05 100.173L880.322 99.9916C880.684 99.8103 881.047 99.5384 881.319 99.3571L881.862 98.9945L882.316 98.6319L882.587 98.4506C882.678 98.3599 882.769 98.36 882.859 98.2693L883.312 97.9067L883.584 97.7254L883.766 97.5441L884.219 97.0909C884.4 96.9096 884.491 96.8189 884.581 96.6376C884.672 96.4563 884.853 96.3657 884.944 96.1844L885.306 95.7312C885.397 95.6405 885.397 95.5499 885.487 95.4592L885.669 95.1873L886.031 94.734C886.122 94.5527 886.213 94.3714 886.303 94.1901C886.484 93.8275 886.666 93.465 886.847 93.193C886.937 93.0117 887.028 92.8304 887.119 92.6491C887.209 92.4678 887.3 92.2865 887.391 92.1052L887.572 91.5613C887.572 91.4707 887.663 91.38 887.663 91.2894L887.753 91.0175L887.934 90.4736C887.934 90.2923 888.025 90.111 888.025 89.9297C888.206 89.2045 888.297 88.3887 888.297 87.6635C888.297 86.1225 888.025 84.6721 887.481 83.3124C886.937 81.9526 886.122 80.6836 885.034 79.5958C884.037 78.508 882.678 77.6922 881.319 76.967C880.594 76.6044 879.959 76.3325 879.144 76.1512L878.872 76.0605L878.6 75.9699C878.419 75.8792 878.237 75.8792 878.056 75.7886L877.512 75.6979L876.969 75.6073C870.806 74.6101 864.009 76.967 860.113 81.9526C859.659 82.5872 859.206 83.2217 858.844 83.8563C858.481 84.5814 858.119 85.216 857.847 86.0318C857.303 87.4822 857.031 89.0232 857.122 90.6549C857.122 91.4707 857.303 92.1959 857.484 93.0117C857.666 93.8275 857.938 94.5527 858.3 95.2779C858.663 96.0031 859.025 96.7283 859.569 97.3628C860.022 97.9974 860.566 98.6319 861.2 99.2664C861.381 99.4477 861.472 99.8103 861.2 100.082C861.019 100.264 860.656 100.264 860.475 100.173C859.75 99.629 859.025 99.0851 858.391 98.4506C857.756 97.8161 857.213 97.0909 856.669 96.275C855.672 94.734 855.038 92.9211 854.766 91.0175C854.494 89.1138 854.675 87.2102 855.128 85.3973C855.581 83.5843 856.488 81.862 857.575 80.321C859.75 77.2389 862.922 74.8821 866.366 73.4317C867.272 73.0691 868.178 72.7972 869.084 72.5252C869.991 72.2533 870.897 72.1626 871.894 71.9813C872.8 71.8907 873.797 71.8 874.703 71.8C875.609 71.8 876.606 71.8907 877.512 72.072C878.419 72.2533 879.416 72.4346 880.322 72.7065C881.228 72.9785 882.134 73.3411 882.95 73.7943C883.856 74.2475 884.672 74.7008 885.397 75.3353C886.213 75.8792 886.937 76.5138 887.572 77.2389C888.206 77.9641 888.841 78.78 889.384 79.5958C889.928 80.4116 890.381 81.3181 890.653 82.2246C891.378 84.0375 891.65 86.0318 891.469 88.0261C891.378 89.0232 891.287 89.9297 891.016 90.9268C890.925 91.1988 890.834 91.38 890.834 91.652L890.562 92.2865L890.472 92.6491C890.472 92.7398 890.381 92.8304 890.291 93.0117L890.019 93.6463C889.203 95.3686 888.025 96.9096 886.756 98.1787C885.397 99.5384 883.947 100.626 882.316 101.442C881.953 101.623 881.5 101.805 881.047 102.077L880.775 102.258L880.503 102.348L879.869 102.62C879.687 102.711 879.416 102.802 879.234 102.802L878.6 102.983C878.147 103.074 877.694 103.164 877.331 103.346C876.969 103.436 876.606 103.164 876.516 102.802C876.516 102.167 876.697 101.805 877.059 101.714Z" fill="#371A45"/>
<path d="M851.141 86.032C850.959 86.8478 850.869 87.6636 850.778 88.4795C850.687 89.2953 850.688 90.1111 850.688 90.927C850.778 92.5587 851.05 94.0997 851.503 95.55C851.594 95.9126 851.775 96.2752 851.866 96.6378C851.956 96.8191 852.047 97.0004 852.137 97.1817L852.409 97.7256C852.772 98.4508 853.134 99.0853 853.587 99.7199C853.678 99.9012 853.769 100.082 853.95 100.173L854.313 100.626L854.494 100.898L854.675 101.08L855.038 101.533C855.128 101.714 855.309 101.805 855.4 101.986C855.491 102.167 855.672 102.258 855.762 102.439L856.216 102.802C856.306 102.893 856.397 102.983 856.397 102.983L856.578 103.164L857.031 103.527C857.213 103.618 857.303 103.799 857.484 103.89C857.756 104.162 858.119 104.343 858.391 104.615C858.572 104.705 858.753 104.796 858.844 104.977L859.297 105.249L859.841 105.521C860.022 105.612 860.203 105.703 860.384 105.793C861.744 106.518 863.194 107.153 864.734 107.516C866.275 107.969 867.816 108.241 869.356 108.422C870.897 108.603 872.528 108.513 874.069 108.422C877.241 108.15 880.322 107.334 883.222 105.975C886.122 104.615 888.75 102.802 890.925 100.536L891.106 100.354L891.288 100.173L891.65 99.7199C891.922 99.4479 892.194 99.0853 892.375 98.8134C892.828 98.1788 893.281 97.5443 893.734 96.8191C894.55 95.4594 895.275 94.009 895.728 92.468C896.181 90.927 896.544 89.386 896.634 87.7543C896.634 87.3917 896.634 86.9385 896.634 86.5759V85.9413L896.544 85.3068C896.544 84.8535 896.453 84.491 896.453 84.1284C896.453 83.9471 896.362 83.7658 896.362 83.4938L896.272 82.8593C896.181 82.5873 896.453 82.2248 896.725 82.2248C896.997 82.1341 897.269 82.3154 897.359 82.5873C897.541 83.0406 897.631 83.4032 897.812 83.8564C897.903 84.3097 898.084 84.6723 898.175 85.1255L898.266 85.76L898.356 86.3946C898.447 86.8478 898.447 87.3011 898.447 87.7543C898.447 87.9356 898.447 88.2075 898.447 88.3888C898.447 88.5701 898.447 88.8421 898.447 89.0234V89.6579V90.0205V90.3831L898.356 91.0176C898.356 91.1989 898.266 91.4709 898.266 91.6522C898.175 92.1054 898.084 92.5586 897.994 93.0119C897.994 93.1932 897.903 93.4651 897.812 93.6464L897.631 94.281L897.45 94.9155C897.359 95.0968 897.359 95.3687 897.269 95.55C897.087 96.0033 896.997 96.3659 896.725 96.8191L896.453 97.4537L896.181 98.0882C895.366 99.7199 894.369 101.17 893.191 102.53C892.012 103.89 890.744 105.159 889.294 106.247C889.112 106.428 888.931 106.518 888.75 106.609L888.206 106.972C887.844 107.244 887.481 107.516 887.119 107.697C886.756 107.969 886.303 108.15 885.941 108.422C885.578 108.603 885.125 108.875 884.762 109.057C883.131 109.872 881.5 110.507 879.778 111.051C878.056 111.595 876.244 111.867 874.431 112.048C870.806 112.411 867.181 112.048 863.647 110.96C861.925 110.416 860.203 109.691 858.663 108.785C857.122 107.878 855.581 106.79 854.313 105.521C852.953 104.252 851.866 102.802 850.959 101.17C850.506 100.354 850.144 99.5386 849.781 98.7227C849.691 98.5414 849.6 98.2695 849.509 98.0882C849.419 97.9069 849.328 97.6349 849.328 97.4537C849.238 97.0004 849.056 96.5472 848.966 96.0939C848.15 92.5586 848.422 88.8421 849.691 85.4881C849.872 85.1255 850.234 84.9442 850.597 85.1255C851.05 85.3068 851.231 85.6694 851.141 86.032Z" fill="#371A45"/>
<g opacity="0.35">
<g opacity="0.35">
<g opacity="0.35">
<g opacity="0.35">
<path opacity="0.35" d="M898.772 42.9625C903.573 42.7754 907.336 39.2985 907.176 35.1966C907.016 31.0947 902.995 27.921 898.194 28.1081C893.393 28.2951 889.63 31.772 889.79 35.874C889.95 39.9759 893.971 43.1495 898.772 42.9625Z" fill="#371A45"/>
</g>
</g>
</g>
</g>
<path d="M903.296 39.8875C904.018 37.0753 901.775 34.0679 898.285 33.1704C894.795 32.2728 891.379 33.825 890.657 36.6372C889.934 39.4495 892.177 42.4568 895.667 43.3544C899.157 44.2519 902.573 42.6997 903.296 39.8875Z" fill="#FFDA22"/>
<path d="M899.081 42.8834C900.803 42.6115 902.434 41.977 903.794 40.8892C903.975 40.7079 904.156 40.6172 904.247 40.5266L904.519 40.3453C904.61 40.2546 904.7 40.164 904.7 40.164C904.972 39.8921 905.244 39.5295 905.425 39.2575C905.516 39.0762 905.606 38.8949 905.697 38.7136L905.878 38.4417C905.878 38.351 905.969 38.2604 905.969 38.1697C906.15 37.8071 906.241 37.4446 906.331 37.082C906.694 35.5409 906.422 33.9999 905.606 32.6402C904.791 31.3711 903.431 30.2834 901.981 29.7395C898.991 28.561 895.275 28.9236 892.738 31.0085C891.469 32.0057 890.472 33.456 890.2 35.0877C890.109 35.4503 890.109 35.9035 890.109 36.3568C890.109 36.81 890.2 37.1726 890.291 37.6259C890.472 38.4417 890.834 39.2575 891.288 39.9827C891.378 40.164 891.378 40.3453 891.197 40.4359C891.016 40.5266 890.834 40.5266 890.744 40.3453C890.381 39.9827 890.109 39.6201 889.838 39.1669C889.566 38.7136 889.384 38.2604 889.203 37.8071C888.841 36.9007 888.75 35.8129 888.841 34.8158C888.931 33.8186 889.203 32.8215 889.656 31.915C890.109 31.0085 890.744 30.1927 891.559 29.4675C893.1 28.1078 895.003 27.2013 896.997 26.8387C898.991 26.4761 901.075 26.6574 902.978 27.4733C903.431 27.6546 903.884 27.9265 904.338 28.1078C904.791 28.3797 905.244 28.6517 905.606 29.0143C906.422 29.6488 907.147 30.4646 907.691 31.3711C908.235 32.2776 908.597 33.3654 908.778 34.3625C908.96 35.4503 908.869 36.5381 908.506 37.5352C908.325 38.0791 908.144 38.5323 907.872 38.9856C907.781 39.0762 907.781 39.2575 907.691 39.3482L907.509 39.7108C907.419 39.8921 907.238 40.164 907.056 40.3453C906.422 41.1611 905.606 41.7957 904.791 42.3396C903.069 43.4273 901.075 43.8806 899.172 43.8806C898.9 43.8806 898.719 43.6993 898.719 43.4273C898.719 43.0647 898.9 42.8834 899.081 42.8834Z" fill="#371A45"/>
<path d="M887.572 31.915C886.847 33.5467 886.575 35.1783 886.756 36.81C886.847 37.6258 887.028 38.4417 887.3 39.1668C887.572 39.892 888.025 40.6172 888.478 41.2518C889.475 42.5208 890.744 43.6086 892.194 44.4244C893.644 45.2403 895.184 45.6935 896.906 45.9654C898.538 46.1467 900.259 46.1467 901.891 45.7842C903.522 45.4216 905.063 44.787 906.422 43.8805C907.147 43.4273 907.781 42.8834 908.325 42.3395C908.869 41.705 909.413 41.0705 909.866 40.3453C910.319 39.6201 910.681 38.8949 910.863 38.0791C911.134 37.2632 911.225 36.4474 911.225 35.5409C911.225 35.3596 911.406 35.1783 911.587 35.1783C911.769 35.1783 911.859 35.269 911.95 35.4503C912.131 36.3567 912.131 37.3539 911.95 38.2604C911.95 38.5323 911.859 38.7136 911.859 38.9856L911.769 39.3481C911.769 39.4388 911.678 39.6201 911.678 39.7107L911.587 40.0733C911.587 40.164 911.497 40.2546 911.497 40.4359C911.406 40.7079 911.316 40.8892 911.225 41.0705C910.863 41.9769 910.319 42.7928 909.684 43.518C909.05 44.2431 908.325 44.9683 907.6 45.5122C906.059 46.6906 904.247 47.5065 902.434 47.9597C900.531 48.4129 898.628 48.5942 896.634 48.3223C894.731 48.0504 892.828 47.5065 891.106 46.5093C890.291 46.0561 889.475 45.4216 888.75 44.787C888.025 44.1525 887.391 43.3367 886.847 42.5208C886.303 41.705 885.85 40.7985 885.578 39.8014C885.397 39.3481 885.306 38.8043 885.216 38.351C885.216 38.0791 885.125 37.8978 885.125 37.6258C885.125 37.3539 885.125 37.1726 885.125 36.9006C885.125 35.9035 885.306 34.9064 885.578 33.9999C885.759 33.5467 885.941 33.0934 886.122 32.6402C886.303 32.1869 886.575 31.8243 886.847 31.3711C887.028 31.1898 887.3 31.0992 887.481 31.2805C887.572 31.4618 887.662 31.6431 887.572 31.915Z" fill="#371A45"/>
<path d="M920.197 55.9367C919.291 56.5712 918.475 57.2058 917.659 57.931C916.934 58.6561 916.209 59.472 915.666 60.3785C914.487 62.1008 913.762 64.0044 913.4 65.9986C913.037 67.9929 913.037 70.0778 913.4 72.0721C913.762 74.0663 914.487 76.0606 915.394 77.8735C916.391 79.6865 917.569 81.4088 919.109 82.8592C919.834 83.5844 920.65 84.3096 921.466 84.9441L922.1 85.3973L922.734 85.8506C923.187 86.1225 923.641 86.3945 924.094 86.6664C924.275 86.8477 924.547 86.9384 924.819 87.029L925.544 87.3916L926.269 87.6635L926.631 87.8448C926.722 87.9355 926.903 87.9355 926.994 88.0261L927.719 88.2981C927.809 88.3887 927.991 88.3887 928.081 88.3887L928.444 88.4794L928.806 88.57C928.897 88.57 929.078 88.6607 929.169 88.6607C929.441 88.7513 929.712 88.7513 929.984 88.842C930.256 88.9326 930.528 88.9326 930.8 89.0233C931.072 89.0233 931.344 89.1139 931.616 89.1139L932.431 89.2046C932.522 89.2046 932.703 89.2046 932.794 89.2046H933.156H933.972H934.787H935.241L935.603 89.1139C935.875 89.1139 936.147 89.0233 936.419 89.0233H936.509C936.781 89.0233 937.053 89.2046 937.144 89.5672C937.144 89.8391 937.053 90.0204 936.781 90.111C936.509 90.2017 936.237 90.2923 935.966 90.383L935.512 90.5643L935.059 90.6549L934.153 90.8362C933.881 90.9269 933.609 90.9269 933.247 91.0175L932.794 91.1082C932.612 91.1082 932.522 91.1082 932.341 91.1082L931.434 91.1988C931.162 91.1988 930.8 91.1988 930.528 91.1988C930.256 91.1988 929.894 91.1988 929.622 91.1988C929.35 91.1988 928.987 91.1988 928.716 91.1082C928.534 91.1082 928.444 91.1082 928.262 91.0175L927.809 90.9269L927.356 90.8362C927.175 90.8362 927.084 90.8362 926.903 90.7456L925.997 90.5643C925.816 90.5643 925.725 90.4736 925.544 90.4736L925.091 90.383L924.184 90.111L923.369 89.7485C923.097 89.6578 922.825 89.5672 922.553 89.3859C920.378 88.3887 918.294 87.029 916.481 85.3973C914.669 83.7657 913.128 81.7714 911.95 79.5959C911.316 78.5081 910.862 77.4203 910.5 76.2419C910.137 75.0635 909.775 73.885 909.594 72.616C909.231 70.1685 909.322 67.6303 909.956 65.1828C910.591 62.7353 911.769 60.4691 913.4 58.6561C913.581 58.3842 913.853 58.2029 914.034 58.0216C914.216 57.8403 914.487 57.5684 914.669 57.3871C914.85 57.2058 915.122 57.0245 915.394 56.8432C915.666 56.6619 915.847 56.4806 916.119 56.2993C916.662 55.9367 917.116 55.6648 917.659 55.3928C918.203 55.1209 918.747 54.8489 919.291 54.6676C919.653 54.577 920.016 54.7583 920.197 55.1209C920.65 55.4835 920.469 55.7554 920.197 55.9367Z" fill="#371A45"/>
<g opacity="0.35">
<g opacity="0.35">
<g opacity="0.35">
<g opacity="0.35">
<path opacity="0.35" d="M935.347 84.1853C940.963 81.5426 942.925 73.8915 939.729 67.0961C936.533 60.3007 929.389 56.9343 923.773 59.577C918.157 62.2197 916.195 69.8708 919.391 76.6662C922.587 83.4616 929.731 86.828 935.347 84.1853Z" fill="#371A45"/>
</g>
</g>
</g>
</g>
<path d="M932.975 83.0404C929.078 84.1282 924.456 82.5872 921.284 78.6893C917.025 73.5224 916.844 66.1799 921.012 62.3727C921.556 61.8288 922.191 61.3755 922.916 61.0129C926.087 61.3755 929.259 63.1885 931.706 66.0892C936.056 71.3468 936.509 78.5987 932.975 83.0404Z" fill="#FFDA22"/>
<path d="M937.959 65.0921C937.053 64.2763 936.056 63.6418 935.059 63.0072C934.062 62.4633 932.884 62.0101 931.797 61.8288C929.531 61.2849 927.266 61.4662 925.272 62.3727L924.909 62.554L924.728 62.6446L924.547 62.7353C924.275 62.8259 924.094 63.0072 923.912 63.1885C923.731 63.3698 923.459 63.4605 923.278 63.6418C923.097 63.8231 922.916 64.0044 922.734 64.1857C922.009 64.9108 921.466 65.8173 921.103 66.7238C920.741 67.7209 920.559 68.7181 920.469 69.8058C920.469 70.8936 920.559 71.9814 920.831 72.9785C921.375 75.0634 922.644 77.0577 924.184 78.5987L924.456 78.8706C924.547 78.9613 924.637 79.0519 924.819 79.1426L925.181 79.4145L925.544 79.6865L925.906 79.9584L926.269 80.1397C926.359 80.2304 926.541 80.321 926.631 80.321L926.994 80.5023C927.991 81.0462 928.987 81.4994 930.075 81.6807C931.162 81.9527 932.25 82.0433 933.428 81.9527C933.609 81.9527 933.7 81.9527 933.881 81.9527L934.334 81.862C934.606 81.862 934.878 81.7714 935.15 81.6807C935.694 81.4994 936.237 81.3181 936.691 81.1368C937.687 80.6836 938.594 79.9584 939.409 79.1426C940.225 78.3268 940.769 77.239 941.222 76.1512C941.312 75.8793 941.675 75.698 941.947 75.8793C942.219 75.9699 942.309 76.2418 942.309 76.5138C942.128 77.8735 941.584 79.1426 940.859 80.321C940.134 81.4994 939.047 82.4966 937.869 83.3124C937.234 83.675 936.6 84.0376 935.966 84.3095C935.603 84.4002 935.331 84.5815 934.969 84.6721L934.425 84.8534C934.244 84.8534 934.063 84.9441 933.881 84.9441C932.431 85.216 930.981 85.216 929.622 85.0347C926.812 84.5815 924.094 83.3124 922.009 81.4088C921.919 81.3181 921.737 81.1368 921.647 81.0462L921.284 80.6836C921.194 80.593 921.012 80.4117 920.922 80.321L920.559 79.9584C920.106 79.4145 919.653 78.8706 919.291 78.2361C918.928 77.6016 918.566 76.967 918.294 76.3325C918.022 75.698 917.75 74.9728 917.569 74.3382C917.387 73.6131 917.206 72.8879 917.116 72.1627C917.025 71.4375 917.025 70.7123 917.025 69.9871C917.116 68.5368 917.387 66.9957 918.022 65.636C918.656 64.2763 919.472 63.0072 920.65 61.9194C921.737 60.9223 923.097 60.1065 924.456 59.5626C925.816 59.0187 927.356 58.8374 928.716 58.8374C928.897 58.8374 929.078 58.8374 929.259 58.8374H929.803C929.984 58.8374 930.166 58.8374 930.347 58.9281L930.891 59.0187C931.616 59.2 932.25 59.3813 932.884 59.5626C935.512 60.4691 937.778 62.282 939.409 64.3669C939.681 64.6389 939.591 65.0921 939.228 65.3641C938.594 65.2734 938.231 65.2734 937.959 65.0921Z" fill="#371A45"/>
<path d="M913.128 128.636C917.478 130.359 921.012 133.169 923.187 137.067C927.175 144.047 925.725 152.386 920.469 160.091C917.025 165.168 911.95 169.791 905.516 173.235C889.294 181.847 870.716 179.49 864.1 167.978C861.653 163.717 861.2 158.732 862.378 153.746C864.463 145.316 871.531 137.248 881.772 131.9" fill="#FFDA22"/>
<path d="M923.912 136.614C925 138.245 925.906 140.058 926.359 142.053C926.812 144.047 926.994 146.041 926.812 148.126C926.631 150.12 926.269 152.114 925.544 154.018C925.181 154.925 924.819 155.922 924.456 156.828C924.003 157.735 923.55 158.641 923.097 159.457C922.1 161.179 921.012 162.811 919.744 164.352C918.475 165.893 917.115 167.343 915.665 168.703C915.303 169.066 914.941 169.338 914.578 169.7C914.216 169.972 913.853 170.335 913.4 170.607C912.584 171.241 911.859 171.785 911.044 172.329C909.412 173.417 907.691 174.414 905.969 175.32C902.434 177.133 898.719 178.493 894.822 179.309C893.825 179.49 892.919 179.672 891.922 179.853C890.925 180.034 889.928 180.125 888.931 180.125C886.937 180.215 884.944 180.215 882.95 180.034C881.953 179.943 880.956 179.762 879.959 179.581C878.963 179.4 878.056 179.128 877.059 178.856C875.156 178.312 873.253 177.496 871.531 176.589C869.809 175.592 868.178 174.414 866.819 172.964C866.094 172.238 865.459 171.513 864.916 170.697C864.372 169.882 863.828 169.066 863.466 168.159C863.284 167.797 863.466 167.434 863.828 167.253C864.1 167.071 864.463 167.253 864.644 167.434C865.188 168.159 865.731 168.884 866.366 169.519C867 170.153 867.634 170.788 868.359 171.332C869.719 172.42 871.259 173.326 872.891 174.051C876.153 175.502 879.688 176.136 883.222 176.318C886.756 176.408 890.381 176.046 893.825 175.139C894.731 174.958 895.547 174.686 896.453 174.414C897.269 174.142 898.175 173.87 898.991 173.507C899.806 173.145 900.622 172.873 901.437 172.51C902.253 172.148 903.069 171.785 903.884 171.332C905.516 170.516 907.056 169.61 908.506 168.612C909.956 167.615 911.406 166.528 912.766 165.349C914.125 164.171 915.394 162.902 916.572 161.633C917.75 160.273 918.837 158.913 919.834 157.372C920.831 155.831 921.647 154.29 922.372 152.658C923.006 151.027 923.55 149.304 923.822 147.582C924.094 145.86 924.184 144.137 923.912 142.324C923.731 140.602 923.187 138.88 922.462 137.248C922.281 136.795 922.462 136.342 922.825 136.16C923.278 136.16 923.641 136.342 923.912 136.614Z" fill="#371A45"/>
<g opacity="0.35">
<g opacity="0.35">
<g opacity="0.35">
<g opacity="0.35">
<path opacity="0.35" d="M900.072 169.523C913.133 164.583 920.807 152.872 917.214 143.367C913.62 133.862 900.119 130.161 887.058 135.102C873.998 140.042 866.323 151.752 869.917 161.258C873.511 170.763 887.012 174.464 900.072 169.523Z" fill="#371A45"/>
</g>
</g>
</g>
</g>
<path d="M896.638 170.581C908.037 167.3 915.607 158.829 913.545 151.661C911.483 144.492 900.57 141.34 889.171 144.621C877.771 147.902 870.202 156.373 872.264 163.541C874.326 170.71 885.238 173.861 896.638 170.581Z" fill="#FFDA22"/>
<path d="M878.509 171.332C877.966 171.151 877.331 170.879 876.787 170.697C876.516 170.607 876.244 170.425 875.972 170.335C875.7 170.153 875.428 170.063 875.156 169.881C874.069 169.247 873.072 168.431 872.166 167.525C870.353 165.712 868.994 163.355 868.269 160.817C867.906 159.548 867.816 158.188 867.725 156.919C867.725 155.65 867.906 154.29 868.178 153.021C868.45 151.752 868.812 150.483 869.356 149.304L869.537 148.851C869.628 148.67 869.628 148.579 869.719 148.398C869.9 148.126 869.991 147.854 870.172 147.491L870.625 146.676C870.806 146.404 870.987 146.132 871.078 145.86C871.259 145.588 871.441 145.316 871.622 145.044C871.803 144.772 871.984 144.5 872.166 144.228C872.347 143.956 872.528 143.684 872.709 143.412L873.253 142.687C874.069 141.69 874.884 140.783 875.791 139.877C877.603 138.155 879.597 136.614 881.772 135.254C886.031 132.625 890.834 130.903 895.909 130.268C897.178 130.087 898.447 130.087 899.716 130.087C900.984 130.087 902.253 130.178 903.522 130.359C906.059 130.721 908.597 131.447 910.953 132.716C912.131 133.35 913.219 134.075 914.216 134.982C915.212 135.888 916.119 136.886 916.934 137.973C917.659 139.061 918.294 140.33 918.747 141.599C919.2 142.868 919.472 144.228 919.562 145.497C919.653 146.857 919.563 148.126 919.381 149.486C919.2 150.755 918.837 152.024 918.384 153.202C917.931 154.381 917.387 155.559 916.753 156.647C916.119 157.735 915.394 158.732 914.669 159.729C913.853 160.726 913.038 161.632 912.131 162.448C911.678 162.902 911.225 163.264 910.772 163.717C910.5 163.899 910.319 164.08 910.047 164.261C909.956 164.352 909.775 164.443 909.684 164.533L909.322 164.805C908.325 165.53 907.328 166.256 906.331 166.799L905.516 167.253C905.244 167.434 904.972 167.525 904.7 167.706C904.156 167.978 903.612 168.25 903.069 168.522C902.706 168.703 902.344 168.522 902.162 168.25C901.981 167.978 902.162 167.615 902.434 167.434C903.431 166.799 904.428 166.165 905.334 165.44C906.241 164.715 907.147 163.989 907.962 163.264L908.234 162.992C908.325 162.902 908.416 162.811 908.506 162.72L909.141 162.086C909.503 161.632 909.956 161.27 910.319 160.817L910.591 160.454C910.681 160.363 910.772 160.273 910.862 160.091C911.044 159.91 911.225 159.638 911.406 159.457L911.95 158.822C912.131 158.641 912.312 158.369 912.403 158.097C913.037 157.191 913.581 156.194 914.125 155.196C914.578 154.199 915.031 153.202 915.303 152.114C915.666 151.117 915.847 150.03 915.937 148.942C916.028 147.854 916.028 146.857 915.937 145.769C915.847 144.772 915.575 143.775 915.212 142.778C914.85 141.871 914.306 140.965 913.762 140.149C913.128 139.333 912.494 138.608 911.678 137.973C910.863 137.339 910.047 136.795 909.05 136.342C908.144 135.888 907.147 135.526 906.15 135.163C905.153 134.891 904.066 134.619 902.978 134.529C901.891 134.438 900.803 134.347 899.716 134.347C898.628 134.347 897.541 134.438 896.453 134.529C892.103 135.073 887.844 136.614 884.037 138.88C883.041 139.424 882.134 140.058 881.228 140.693C880.322 141.327 879.506 142.052 878.691 142.778C877.875 143.503 877.059 144.319 876.334 145.135C875.609 145.95 874.975 146.857 874.341 147.763C873.706 148.67 873.162 149.576 872.709 150.573C872.256 151.571 871.894 152.568 871.622 153.565C871.35 154.562 871.169 155.65 871.078 156.738C870.987 157.825 871.078 158.822 871.259 159.91C871.441 160.907 871.803 161.995 872.256 162.902L872.437 163.264L872.619 163.627C872.709 163.717 872.709 163.899 872.8 163.989C872.891 164.08 872.891 164.261 872.981 164.352C873.162 164.533 873.253 164.805 873.434 164.986C873.616 165.168 873.797 165.44 873.887 165.621C874.612 166.437 875.337 167.253 876.244 167.887C877.15 168.522 878.056 169.156 879.144 169.61C879.506 169.791 879.687 170.335 879.506 170.697C879.325 171.241 878.872 171.422 878.509 171.332Z" fill="#371A45"/>
<path d="M48.2937 450.075C48.2937 450.075 32.0718 422.518 43.2187 410.008C52.1906 399.946 69.3187 389.522 75.5719 385.896C77.6562 384.717 79.9219 383.811 82.3687 383.448C89.6187 382.361 104.391 383.086 115.447 402.575C126.956 422.88 135.928 437.837 139.553 444.001C140.912 446.358 141.909 448.896 142.181 451.616C143.088 459.14 142.906 474.006 129.766 483.252C113.544 494.674 99.95 500.747 97.3219 501.835C97.05 501.926 96.7781 502.107 96.5062 502.197C93.6968 503.557 76.6594 510.718 67.7781 489.507C57.9906 466.482 48.2937 450.075 48.2937 450.075Z" fill="#50772B" stroke="#371A45" stroke-width="4" stroke-miterlimit="10"/>
<path d="M79.1968 470.018C81.6993 470.018 83.7281 467.988 83.7281 465.485C83.7281 462.982 81.6993 460.953 79.1968 460.953C76.6942 460.953 74.6655 462.982 74.6655 465.485C74.6655 467.988 76.6942 470.018 79.1968 470.018Z" fill="#475BEA"/>
<path d="M74.3031 400.853C74.3031 400.853 87.4437 390.7 94.6031 395.686C101.763 400.581 110.009 412.003 110.009 412.003C110.009 412.003 115.991 422.88 103.122 432.489C90.2531 442.098 81.825 448.715 81.825 448.715C81.825 448.715 70.1344 453.61 62.3406 445.089C54.6375 436.568 50.5593 429.316 50.5593 429.316C50.5593 429.316 43.8531 419.98 55.1812 413.453C66.5094 406.926 74.3031 400.853 74.3031 400.853Z" fill="black"/>
<path d="M116.444 435.934C118.347 434.937 120.794 435.752 121.7 437.656L126.684 447.627C127.681 449.531 126.866 451.978 124.963 452.885C123.059 453.882 120.613 453.066 119.706 451.163L114.722 441.191C113.725 439.288 114.541 436.931 116.444 435.934Z" fill="black"/>
<path d="M113.544 443.458L123.784 438.291C125.597 437.384 127.862 438.109 128.769 439.922C129.675 441.735 128.95 444.001 127.137 444.908L116.897 450.075C115.084 450.981 112.819 450.256 111.912 448.443C110.916 446.63 111.731 444.364 113.544 443.458Z" fill="black"/>
<g opacity="0.5">
<g opacity="0.5">
<g opacity="0.5">
<g opacity="0.5">
<path opacity="0.5" d="M79.4468 428.522C83.7896 424.592 84.9967 418.849 82.1429 415.693C79.2891 412.537 73.4551 413.164 69.1123 417.093C64.7695 421.023 63.5625 426.766 66.4163 429.922C69.2701 433.078 75.1041 432.451 79.4468 428.522Z" fill="white"/>
</g>
</g>
</g>
</g>
<g opacity="0.7">
<g opacity="0.7">
<g opacity="0.7">
<g opacity="0.7">
<path opacity="0.7" d="M1001.7 413.474C1002.49 410.628 1001.14 407.767 998.677 407.085C996.217 406.402 993.584 408.156 992.794 411.003C992.005 413.849 993.359 416.709 995.819 417.392C998.278 418.074 1000.91 416.32 1001.7 413.474Z" fill="white"/>
</g>
</g>
</g>
</g>
<path d="M973.756 391.607C974.391 392.06 975.206 391.969 975.659 391.335L998.95 360.333C999.403 359.699 999.312 358.883 998.678 358.43C992.425 353.716 983.544 354.985 978.922 361.24L970.947 371.846C966.234 378.01 967.503 386.893 973.756 391.607Z" fill="white"/>
<path d="M973.575 391.879L973.756 391.607L973.575 391.879C970.494 389.522 968.5 386.168 967.956 382.361C967.413 378.553 968.409 374.746 970.675 371.664L978.65 361.058C981.006 357.976 984.359 355.982 988.166 355.438C991.972 354.894 995.778 355.891 998.859 358.158C999.222 358.43 999.403 358.792 999.494 359.245C999.584 359.699 999.403 360.152 999.222 360.424L975.931 391.425C975.659 391.788 975.297 391.969 974.844 392.06C974.391 392.241 973.937 392.06 973.575 391.879ZM998.497 358.611C995.506 356.435 991.881 355.438 988.256 355.982C984.631 356.526 981.369 358.43 979.103 361.33L971.128 371.936C968.863 374.927 967.956 378.553 968.5 382.179C969.044 385.805 970.947 389.069 973.847 391.335C974.028 391.516 974.391 391.607 974.663 391.516C974.934 391.516 975.206 391.335 975.387 391.063L998.678 360.061C998.859 359.88 998.95 359.517 998.859 359.245C998.769 358.973 998.769 358.792 998.497 358.611Z" fill="#371A45"/>
<g opacity="0.35">
<g opacity="0.35">
<g opacity="0.35">
<g opacity="0.35">
<path opacity="0.35" d="M974.663 366.86L970.947 371.846C966.234 378.1 967.503 386.984 973.756 391.607C974.391 392.06 975.206 391.969 975.659 391.335L981.822 383.086C981.369 383.358 980.825 383.358 980.372 382.995L979.647 382.451C974.753 378.735 972.941 372.389 974.663 366.86Z" fill="#371A45"/>
</g>
</g>
</g>
</g>
<path d="M972.759 392.876C969.406 390.338 967.231 386.621 966.597 382.451C965.963 378.282 967.05 374.112 969.588 370.758L977.563 360.152C980.1 356.798 983.816 354.622 987.984 353.988C992.153 353.353 996.322 354.441 999.675 356.979C1000.31 357.432 1000.76 358.158 1000.85 358.974C1000.94 359.789 1000.76 360.515 1000.31 361.149L977.019 392.151C976.566 392.785 975.841 393.239 975.025 393.329C974.209 393.601 973.394 393.42 972.759 392.876ZM997.5 359.517C991.972 355.62 984.359 356.707 980.281 362.146L972.306 372.752C970.313 375.381 969.497 378.735 969.95 381.998C970.403 385.171 972.034 388.072 974.572 390.066L997.5 359.517Z" fill="#371A45"/>
<path d="M1101.08 435.39C1100.45 434.936 1099.63 435.027 1099.18 435.662L1075.89 466.663C1075.44 467.298 1075.53 468.114 1076.16 468.567C1082.42 473.281 1091.3 472.012 1095.92 465.757L1103.89 455.151C1108.61 448.896 1107.34 440.103 1101.08 435.39Z" fill="white"/>
<path d="M1076.07 468.839C1075.98 468.839 1075.98 468.839 1076.07 468.839C1075.71 468.567 1075.44 468.204 1075.44 467.751C1075.44 467.298 1075.53 466.845 1075.71 466.573L1099 435.571C1099.54 434.846 1100.54 434.665 1101.27 435.209C1104.35 437.565 1106.34 440.919 1106.88 444.727C1107.43 448.534 1106.43 452.341 1104.17 455.423L1096.19 466.029C1091.48 472.284 1082.42 473.553 1076.07 468.839ZM1100.9 435.571C1100.45 435.209 1099.82 435.299 1099.45 435.752L1076.16 466.754C1075.98 466.935 1075.89 467.298 1075.98 467.57C1075.98 467.842 1076.16 468.114 1076.43 468.295C1082.51 472.828 1091.21 471.649 1095.83 465.485L1103.8 454.879C1106.07 451.888 1106.98 448.262 1106.43 444.636C1105.8 441.101 1103.89 437.837 1100.9 435.571Z" fill="#371A45"/>
<g opacity="0.35">
<g opacity="0.35">
<g opacity="0.35">
<g opacity="0.35">
<path opacity="0.35" d="M1082.42 458.052L1075.98 466.664C1075.53 467.298 1075.62 468.114 1076.25 468.567C1079.52 471.015 1083.5 471.831 1087.31 471.196C1090.66 470.561 1093.83 468.748 1096.1 465.757L1099.45 461.315C1094.74 463.854 1088.76 463.672 1084.14 460.228L1083.05 459.412C1082.51 459.049 1082.32 458.505 1082.42 458.052Z" fill="#371A45"/>
</g>
</g>
</g>
</g>
<path d="M1075.26 469.927C1075.26 469.927 1075.17 469.927 1075.26 469.927C1074.62 469.474 1074.17 468.748 1074.08 467.933C1073.99 467.117 1074.17 466.392 1074.62 465.757L1097.91 434.755C1098.91 433.396 1100.81 433.124 1102.08 434.121C1105.43 436.659 1107.61 440.376 1108.24 444.545C1108.88 448.715 1107.79 452.885 1105.25 456.239L1097.28 466.845C1094.74 470.199 1091.02 472.374 1086.86 473.009C1082.78 473.462 1078.61 472.465 1075.26 469.927ZM1100.36 436.84L1077.43 467.389C1082.96 471.287 1090.57 470.199 1094.65 464.76L1102.62 454.154C1104.62 451.525 1105.43 448.171 1104.98 444.908C1104.53 441.735 1102.9 438.835 1100.36 436.84Z" fill="#371A45"/>
<path d="M1037.47 479.626C1074 479.626 1103.62 449.999 1103.62 413.453C1103.62 376.907 1074 347.28 1037.47 347.28C1000.93 347.28 971.309 376.907 971.309 413.453C971.309 449.999 1000.93 479.626 1037.47 479.626Z" fill="white"/>
<path d="M997.5 466.573C991.609 462.222 986.625 456.873 982.456 450.8C977.653 443.729 974.3 435.843 972.397 427.413C970.584 418.983 970.403 410.371 971.853 401.941C973.394 393.148 976.656 384.899 981.459 377.375C986.353 369.851 992.516 363.506 999.856 358.52C1006.92 353.716 1014.81 350.362 1023.24 348.458C1031.67 346.645 1040.27 346.464 1048.7 347.914C1057.49 349.455 1065.74 352.719 1073.26 357.523C1080.78 362.418 1087.13 368.582 1092.11 375.925C1096.92 382.995 1100.27 390.882 1102.17 399.312C1103.98 407.742 1104.17 416.354 1102.72 424.784C1101.17 433.577 1097.91 441.826 1093.11 449.35C1088.31 456.873 1082.05 463.219 1074.71 468.204C1067.64 473.009 1059.76 476.363 1051.33 478.266C1042.9 480.17 1034.29 480.261 1025.87 478.81C1017.07 477.269 1008.83 474.006 1001.31 469.202C1000.04 468.476 998.769 467.57 997.5 466.573ZM1076.98 360.786C1075.8 359.88 1074.53 358.974 1073.17 358.158C1058.4 348.64 1040.82 345.376 1023.6 349.093C1006.38 352.809 991.7 362.962 982.184 377.738C963.334 406.926 970.584 445.633 997.953 466.12C999.131 467.026 1000.4 467.933 1001.76 468.748C1032.3 488.419 1073.08 479.626 1092.75 449.168C1111.6 419.98 1104.35 381.364 1076.98 360.786Z" fill="#371A45"/>
<g opacity="0.35">
<g opacity="0.35">
<g opacity="0.35">
<g opacity="0.35">
<path opacity="0.35" d="M987.35 370.214C985.356 372.48 983.544 374.928 981.822 377.556C961.975 408.286 970.856 449.168 1001.49 469.02C1032.21 488.872 1073.08 479.989 1092.93 449.35C1093.47 448.443 1094.02 447.537 1094.56 446.63C1073.35 471.287 1036.74 477.088 1008.65 458.958C978.922 439.741 969.769 400.581 987.35 370.214Z" fill="#371A45"/>
</g>
</g>
</g>
</g>
<path d="M996.684 467.661C990.703 463.219 985.538 457.78 981.369 451.616C976.475 444.364 973.031 436.296 971.128 427.685C969.316 419.073 969.134 410.371 970.584 401.669C972.125 392.695 975.478 384.264 980.463 376.65C985.447 368.945 991.791 362.509 999.222 357.342C1006.47 352.447 1014.54 349.002 1023.15 347.099C1031.76 345.286 1040.46 345.104 1049.16 346.555C1058.13 348.096 1066.56 351.45 1074.17 356.435C1081.87 361.421 1088.31 367.766 1093.47 375.2C1098.37 382.451 1101.81 390.519 1103.71 399.131C1105.53 407.742 1105.71 416.445 1104.26 425.147C1102.72 434.121 1099.36 442.551 1094.38 450.166C1089.39 457.871 1083.05 464.307 1075.62 469.474C1068.37 474.369 1060.3 477.813 1051.69 479.717C1043.08 481.53 1034.38 481.711 1025.68 480.261C1016.71 478.72 1008.28 475.366 1000.67 470.38C999.313 469.564 998.044 468.658 996.684 467.661ZM1076.16 361.874C1074.98 360.968 1073.72 360.152 1072.45 359.336C1057.95 349.999 1040.73 346.827 1023.87 350.453C1007.02 354.079 992.606 364.05 983.272 378.554C964.784 407.198 971.944 445.089 998.769 465.123C999.947 466.029 1001.22 466.845 1002.48 467.661C1032.39 486.969 1072.36 478.357 1091.66 448.443C1110.06 419.889 1102.99 381.998 1076.16 361.874Z" fill="#371A45"/>
<path d="M981.097 379.097C973.938 389.885 970.766 402.213 971.219 414.45C971.581 423.606 982.728 446.812 1005.38 462.131C1026.32 476.363 1053.05 477.995 1061.66 474.731C1073.17 470.471 1083.32 462.766 1090.48 451.979C1109.51 423.515 1092.93 395.323 1062.66 375.2C1032.48 355.166 1000.13 350.634 981.097 379.097Z" fill="#371A45"/>
<path d="M1001.12 461.225C990.069 452.976 982.819 443.639 978.559 436.931C973.212 428.591 969.769 419.98 969.587 414.541C969.134 401.487 972.578 388.887 979.737 378.191C984.45 371.12 990.25 365.681 996.866 362.237C1003.12 358.973 1010.1 357.342 1017.71 357.342C1031.57 357.432 1047.43 363.143 1063.57 373.93C1079.7 384.718 1091.12 397.136 1096.55 409.918C1099.54 416.898 1100.72 424.059 1100 431.039C1099.27 438.472 1096.55 445.905 1091.84 452.976C1084.68 463.672 1074.44 471.74 1062.21 476.363C1057.22 478.266 1047.62 478.357 1037.83 476.725C1029.22 475.275 1016.44 471.74 1004.39 463.581C1003.3 462.766 1002.21 462.04 1001.12 461.225ZM982.547 380.094C975.75 390.247 972.487 402.122 972.941 414.45C973.212 422.699 983.634 445.452 1006.38 460.862C1017.89 468.748 1030.22 472.012 1038.46 473.462C1048.97 475.275 1057.4 474.641 1061.12 473.281C1072.72 468.93 1082.42 461.315 1089.12 451.163C1097.82 438.2 1099.27 424.693 1093.56 411.187C1088.4 399.04 1077.43 387.074 1061.84 376.65C1046.26 366.225 1031.03 360.696 1017.8 360.605C1003.03 360.514 991.156 367.041 982.547 380.094Z" fill="#371A45"/>
<g opacity="0.35">
<g opacity="0.35">
<g opacity="0.35">
<g opacity="0.35">
<path opacity="0.35" d="M1009.46 359.608C998.497 361.512 988.709 367.676 981.097 379.098C973.938 389.885 970.766 402.213 971.219 414.45C971.581 423.606 982.728 446.812 1005.38 462.222C1013.36 467.661 1022.15 471.287 1030.49 473.462C1003.12 453.973 989.525 425.691 989.163 414.269C988.619 398.677 992.606 383.086 1001.76 369.398C1004.12 365.682 1006.74 362.509 1009.46 359.608Z" fill="#111A28"/>
</g>
</g>
</g>
</g>
<path d="M1001.49 358.611C1001.12 358.339 1000.85 357.977 1000.85 357.433C1000.76 356.617 1001.31 355.892 1002.03 355.71C1006.83 353.897 1012.09 352.81 1017.53 352.538C1022.87 352.266 1028.4 352.719 1034.11 353.897C1039.73 355.076 1045.35 356.889 1051.06 359.336C1056.68 361.784 1062.3 364.866 1067.73 368.492C1073.26 372.208 1078.34 376.197 1082.69 380.548C1087.13 384.899 1091.03 389.522 1094.11 394.236C1097.28 399.131 1099.82 404.116 1101.45 409.193C1103.17 414.45 1104.08 419.708 1104.17 425.056C1104.17 425.963 1103.53 426.688 1102.72 426.778C1101.81 426.869 1100.99 426.235 1100.9 425.328L1102.53 425.147L1100.9 425.328V425.237V425.147C1100.72 405.657 1087.94 385.987 1065.92 371.211C1043.99 356.526 1021.06 352.084 1003.12 358.883L1002.94 358.974H1002.76C1002.21 358.974 1001.85 358.883 1001.49 358.611Z" fill="#371A45"/>
<g opacity="0.35">
<g opacity="0.35">
<g opacity="0.35">
<g opacity="0.35">
<path opacity="0.35" d="M1090.3 482.618C1089.58 483.071 1088.94 483.343 1088.22 483.524C1088.94 483.071 1089.58 482.799 1090.3 482.618Z" fill="#371A45"/>
</g>
</g>
</g>
</g>
<g opacity="0.5">
<g opacity="0.5">
<g opacity="0.5">
<g opacity="0.5">
<path opacity="0.5" d="M1074.62 450.698C1078.96 446.768 1080.17 441.025 1077.31 437.869C1074.46 434.713 1068.62 435.34 1064.28 439.269C1059.94 443.199 1058.73 448.942 1061.58 452.098C1064.44 455.254 1070.27 454.627 1074.62 450.698Z" fill="white"/>
</g>
</g>
</g>
</g>
<g opacity="0.5">
<g opacity="0.5">
<g opacity="0.5">
<g opacity="0.5">
<path opacity="0.5" d="M1051.6 459.301C1053.84 457.782 1054.6 455.007 1053.31 453.102C1052.01 451.197 1049.15 450.884 1046.92 452.403C1044.68 453.922 1043.92 456.698 1045.21 458.603C1046.5 460.508 1049.37 460.82 1051.6 459.301Z" fill="white"/>
</g>
</g>
</g>
</g>
<g opacity="0.5">
<g opacity="0.5">
<g opacity="0.5">
<g opacity="0.5">
<path opacity="0.5" d="M981.097 403.663C981.097 403.663 991.791 371.392 1013.54 371.12C1035.29 370.848 1055.59 385.624 1054.23 386.621C1054.23 386.621 1027.68 375.834 1006.02 387.256C989.253 396.139 981.097 403.663 981.097 403.663Z" fill="white"/>
</g>
</g>
</g>
</g>
<path d="M86.3562 483.071C88.8587 483.071 90.8875 481.041 90.8875 478.538C90.8875 476.035 88.8587 474.006 86.3562 474.006C83.8536 474.006 81.825 476.035 81.825 478.538C81.825 481.041 83.8536 483.071 86.3562 483.071Z" fill="#F41919"/>
<path d="M129.856 259.26C131.759 263.883 132.666 269.141 132.666 274.852C132.666 281.288 131.397 287.089 128.95 292.256C126.503 297.423 122.788 301.956 117.894 305.672C113 309.389 106.928 312.38 99.8594 314.465C92.1563 316.731 84 317.819 75.4813 317.819C65.2407 317.819 55.6344 316.187 46.6625 313.015C42.0407 311.383 38.2344 309.479 35.425 307.213C32.6157 305.038 30.5313 302.59 29.2625 299.78L28.4469 297.967C28.3563 297.604 28.175 297.151 28.0844 296.789C26.9063 292.528 27.2688 288.449 29.2625 284.551L30.2594 282.738L30.4407 282.376C31.2563 281.288 32.0719 280.472 32.7969 279.747C34.7907 278.387 37.2375 277.843 40.2282 278.115C42.7657 278.387 46.2094 279.565 50.65 281.741C52.0094 282.285 53.0063 282.647 53.6407 282.919C60.5282 286.001 67.5063 287.542 74.3938 287.542C74.4844 287.542 74.7563 287.542 75.0282 287.542H75.6625C78.7438 287.452 81.5531 286.999 84.0906 286.364C85.45 286.001 86.7188 285.458 88.0782 284.732C90.4344 283.554 92.2469 281.832 93.5157 279.747C94.9657 277.209 95.3281 274.58 94.5125 271.77C93.9688 269.775 92.8813 268.053 91.1594 266.603C89.4376 265.152 87.8063 264.065 86.3563 263.521C84.9063 262.886 82.7313 262.252 79.9219 261.436L78.2907 260.801C77.4751 260.529 76.2969 260.167 74.6657 259.623L71.8563 258.807C65.15 256.631 60.1657 254.909 56.6313 253.64L53.6407 252.462C44.85 248.473 38.325 243.578 34.0657 237.686C30.1688 232.247 28.0844 225.72 27.6313 218.287C27.0875 208.588 29.7157 199.886 35.425 192.271V192.09L38.0531 188.917V189.28C39.4125 187.83 40.6813 186.56 42.0407 185.563C43.4 184.566 44.9407 183.569 46.6625 182.481H46.4813L49.8344 180.85L50.1969 180.668C58.6251 176.68 68.9563 174.686 81.3719 174.686C87.8063 174.686 93.6063 175.048 98.9532 175.864C100.675 176.227 102.669 176.77 104.934 177.224L105.569 177.405L107.563 178.04C110.916 179.127 113.725 180.306 116.172 181.665C116.263 181.756 116.625 182.028 117.169 182.481V182.3L118.981 183.66L119.344 184.022C122.425 186.56 124.419 189.461 125.325 192.634C126.141 195.263 126.231 198.163 125.506 201.245C125.144 203.421 124.328 204.962 123.331 206.05C121.609 208.044 118.891 208.951 115.175 208.679C110.281 208.407 103.031 207.5 93.6063 205.869C86.9 204.69 81.1907 204.509 76.3875 205.506C72.6719 206.322 69.8625 207.863 67.9594 210.31C66.2375 212.576 65.6032 214.933 66.1469 217.29C66.9625 220.191 68.9563 222.366 72.1282 223.726C75.3 225.086 80.1938 226.899 86.7188 229.165C96.4157 232.519 103.666 235.329 108.288 237.777C110.644 239.136 113.181 240.677 115.719 242.4L116.897 243.216L117.531 243.578V243.759C119.163 244.938 120.522 246.116 121.7 247.113C123.422 248.836 125.053 250.921 126.503 253.278H126.684L127.047 254.093L127.681 255.09V255.272C128.769 256.722 129.403 257.991 129.856 259.26Z" fill="white"/>
<path d="M252.925 254.275C256.913 267.781 256.459 281.378 251.566 295.248C251.203 296.426 250.659 297.605 250.206 298.602C245.584 309.57 238.516 318 229 323.983C221.659 328.516 212.053 330.872 200 331.144C199.728 331.144 199.184 331.144 198.369 331.144H197.009H196.375C194.925 331.144 193.838 331.144 193.203 331.144C188.581 331.054 185.319 332.685 183.597 336.13C183.325 336.946 183.053 337.671 182.781 338.306C182.238 340.3 181.875 343.382 181.603 347.461C181.241 352.356 180.516 356.073 179.609 358.429C178.794 360.696 177.616 362.69 175.984 364.322C174.353 365.953 172.45 367.222 170.275 368.038C168.1 368.854 165.653 369.217 162.934 369.217C161.756 369.217 160.578 369.126 159.309 369.035C155.594 368.491 152.513 366.86 150.156 364.05L149.794 363.687L148.434 362.055H148.616C146.713 358.973 145.444 355.075 144.809 350.271L144.628 348.458V347.824C144.628 347.008 144.628 346.555 144.628 346.464C144.356 341.388 144.447 333.682 144.809 323.258C145.081 317.638 145.263 313.468 145.444 310.658C145.444 309.026 145.444 307.757 145.444 306.851C145.444 302.681 145.353 296.97 145.263 289.627V287.452C144.991 273.945 144.9 263.883 145.081 257.085C145.172 250.83 146.169 245.301 147.891 240.496L148.072 240.134L149.069 237.505V237.686C151.878 231.703 155.956 226.99 161.484 223.726C161.756 223.636 161.938 223.545 162.119 223.545H161.938L164.294 222.185L164.656 222.004V222.185C176.075 216.565 190.213 215.024 206.797 217.562C210.784 218.197 214.591 219.194 218.306 220.372C221.931 221.551 225.375 223.092 228.637 224.905C231.809 226.718 234.8 228.712 237.519 230.887C240.238 233.063 242.684 235.511 244.859 238.321C247.034 241.04 248.756 243.941 250.297 247.023C251.203 249.38 252.109 251.737 252.925 254.275ZM217.581 262.524C217.491 262.252 217.219 261.617 216.947 260.711C216.947 260.62 216.856 260.348 216.766 259.986C216.675 259.623 216.494 259.351 216.403 259.079C216.403 258.807 216.131 258.173 215.588 257.266C215.588 257.175 215.497 256.903 215.406 256.632C215.316 256.36 215.134 256.088 215.044 255.816C214.953 255.544 214.5 255 213.866 254.184C213.866 254.093 213.775 253.912 213.684 253.64C213.594 253.459 213.413 253.278 213.322 253.096C212.688 252.19 211.963 251.374 211.147 250.739C206.888 247.113 202.084 245.3 196.738 245.3C193.928 245.3 191.391 245.844 189.125 246.932C186.225 248.564 184.05 250.921 182.6 254.003C181.241 257.175 180.606 260.348 180.697 263.702C180.788 267.056 180.878 270.41 180.878 273.855L181.241 277.662C181.331 280.019 181.513 281.922 181.513 283.282C181.603 284.642 181.784 286.455 182.147 288.721C182.509 290.987 182.963 292.8 183.688 294.251C184.322 295.61 185.138 297.061 186.044 298.511C186.95 299.961 188.219 301.14 189.759 301.865C191.3 302.681 193.022 303.043 195.016 303.043C198.097 303.315 201.269 302.771 204.531 301.321C207.794 299.961 210.422 298.058 212.416 295.792C216.584 290.987 218.578 283.645 218.578 273.764C218.578 272.948 218.578 271.951 218.578 270.773" fill="white"/>
<path d="M364.756 277.481C365.844 281.832 366.75 285.367 367.384 287.996L367.566 288.812L367.747 290.443C368.563 295.338 368.834 299.599 368.381 303.225L368.109 304.947C367.384 308.392 365.844 312.018 363.941 314.465C361.131 318.272 355.331 321.808 346.722 325.162C337.569 328.606 329.594 331.054 322.978 332.595C314.006 334.589 305.759 335.314 298.238 334.498C287.906 333.411 279.75 329.603 273.859 322.986L273.316 322.261L272.5 321.264C269.691 317.366 267.787 313.015 266.7 308.21C265.341 302.228 265.25 296.789 266.519 291.894L266.881 290.625L267.063 289.718C267.969 287.18 269.147 284.914 270.688 282.92C275.672 275.94 284.281 270.773 296.697 267.419C297.241 267.328 297.966 267.147 298.872 266.965C302.225 266.059 304.853 265.334 306.666 264.699C308.478 264.065 310.563 262.977 313.009 261.345C315.366 259.714 316.906 257.901 317.722 255.816C318.447 253.64 318.447 251.827 317.722 250.467C316.997 249.108 315.638 248.201 313.644 247.748C311.288 247.204 308.569 247.204 305.488 247.748C303.222 248.02 300.866 248.654 298.328 249.742C296.063 250.649 292.8 252.371 288.45 254.819C283.284 257.901 279.206 259.986 276.125 261.073C272.047 262.433 268.331 261.98 264.978 259.714C261.263 257.266 259.359 253.459 259.088 248.292C258.906 242.037 260.991 236.689 265.522 232.247C269.963 227.805 276.306 224.633 284.463 222.82H284.644C289.175 221.823 293.525 220.916 297.603 220.282C314.188 218.015 327.419 219.647 337.297 225.177L339.2 226.355C342.372 228.259 345.091 230.434 347.447 233.063C351.344 237.686 354.697 243.306 357.416 250.105L358.322 252.19C360.316 257.357 361.947 262.886 363.125 268.778C363.034 270.501 363.669 273.492 364.756 277.481ZM315.819 306.669L317.088 306.488C317.541 306.397 318.084 306.397 318.538 306.397C322.072 306.216 325.334 304.131 327.781 301.049C330.409 297.695 331.225 294.251 330.409 290.625C330.319 290.081 330.138 289.627 329.866 289.084C329.231 288.177 328.416 287.361 327.509 286.727C326.513 286.092 325.697 285.639 324.881 285.367C324.066 285.095 322.978 285.004 321.709 285.095C320.441 285.186 319.444 285.276 318.719 285.367C317.994 285.458 316.906 285.639 315.456 285.82L314.913 285.911L312.194 286.727C308.025 288.177 304.763 290.081 302.406 292.256C300.231 294.251 299.597 296.698 300.322 299.508C300.956 302.5 302.678 304.675 305.306 305.944C307.663 307.032 311.197 307.485 315.819 306.669Z" fill="white"/>
<path d="M481.119 220.191C487.734 226.808 490.453 234.785 489.366 244.213C489.094 247.295 488.006 249.923 486.103 252.099C484.2 254.274 481.844 255.453 478.853 255.544C478.038 255.544 476.769 255.453 475.863 255.362L473.688 254.909C470.788 254.093 467.434 252.371 463.719 249.651L462.541 248.836L461.725 248.201L460.366 247.204C458.009 245.482 456.197 244.122 454.928 243.306C453.659 242.4 452.028 241.584 450.034 240.768C448.041 239.952 446.138 239.589 444.416 239.771C441.516 239.771 438.525 240.859 435.625 243.125C431.366 246.207 428.013 250.558 425.566 256.269C422.484 263.883 421.578 271.498 422.847 279.203V279.384C424.297 287.361 427.922 292.981 433.722 296.063C436.259 297.423 439.069 298.058 442.331 297.876C446.5 297.876 451.394 296.698 457.103 294.341C458.825 293.525 461.272 292.437 464.353 290.987C465.984 290.171 467.253 289.627 468.159 289.174C474.413 286.273 479.125 286.908 482.297 291.078C484.563 293.797 485.469 297.514 485.106 302.409C484.744 307.304 483.203 311.473 480.575 314.918C474.141 323.258 463.538 327.428 448.675 327.337C442.422 327.337 435.988 326.43 429.281 324.799L428.647 324.617L426.834 324.164C425.656 323.892 424.659 323.62 423.844 323.348C421.578 322.533 419.041 321.535 416.231 320.266L414.056 319.269C406.716 315.371 400.644 310.295 395.75 304.131C390.856 297.967 387.503 290.987 385.691 283.282C382.609 269.957 383.969 257.085 389.859 244.756C395.75 232.428 405.175 222.638 418.134 215.568C423.753 212.395 429.734 210.129 435.988 208.678L436.984 208.497L438.163 208.316C446.591 206.775 454.475 207.047 461.906 209.041L463.9 209.676C470.697 211.851 476.406 215.386 481.119 220.191Z" fill="white"/>
<path d="M501.419 267.872C502.325 261.708 503.413 256.359 505.406 251.646C509.031 243.487 514.288 236.779 521.356 231.431L523.713 229.8C528.606 226.627 534.044 224.179 539.934 222.638L542.291 222.004C552.803 219.738 563.588 220.01 573.647 223.182C583.888 226.355 591.409 231.522 596.122 238.683C600.834 245.844 602.556 254.637 601.197 265.152C599.838 277.027 588.328 284.46 566.578 287.361C565.219 287.633 563.225 287.905 560.416 288.177C553.256 288.811 547.909 289.809 544.647 290.987C542.653 291.803 541.294 292.891 540.659 294.341C540.116 295.701 540.206 297.242 540.841 298.964C541.203 300.143 541.928 301.321 543.016 302.318C544.919 304.04 547.184 305.4 549.994 306.307C555.703 307.938 561.594 308.301 567.575 307.394C573.013 306.579 577.997 305.219 582.619 303.225C583.616 302.771 584.703 302.409 585.7 302.046C585.881 301.955 585.972 301.955 586.153 301.865L586.788 301.684L587.15 301.593C587.784 301.412 588.328 301.23 588.963 301.14C595.125 300.052 599.294 301.684 601.559 305.944C604.188 310.748 604.278 315.371 601.741 319.722L600.381 321.717L600.019 322.079C595.759 327.428 589.416 331.054 580.988 332.866C574.825 334.226 568.753 334.861 562.591 334.861C548.181 334.861 535.766 331.507 525.253 324.889C519.272 321.173 514.288 316.55 510.481 311.111C506.584 305.672 503.956 299.508 502.506 292.709C502.144 290.715 501.691 288.268 501.328 285.548L501.147 283.916V283.101C500.784 278.84 500.331 273.583 501.419 267.872ZM569.569 250.014C566.397 248.292 562.5 247.385 557.969 247.385C551.172 247.476 545.463 249.561 541.022 253.368C538.484 255.544 537.397 257.991 537.85 260.801C538.213 263.43 539.844 265.424 542.653 266.784C544.919 267.872 547.728 268.325 551.081 268.053C554.434 267.872 557.516 267.419 560.416 266.784C563.316 266.149 565.853 265.243 568.119 264.155C569.478 263.521 570.747 262.705 571.925 261.798C573.919 260.076 574.916 258.354 574.916 256.631C575.006 255.272 574.553 254.003 573.284 252.824C572.288 251.736 571.019 250.83 569.569 250.014Z" fill="white"/>
<path d="M786.706 276.846V277.209C786.978 292.71 786.344 304.766 784.894 313.559C784.259 316.913 783.353 319.269 782.175 320.72C780.997 322.17 779.366 323.349 777.281 324.346C775.831 324.89 773.928 325.343 771.663 325.705C769.125 326.068 766.769 326.34 764.503 326.34C760.516 326.34 756.8 325.796 753.538 324.708C745.834 322.17 739.491 315.734 734.506 305.31C728.797 293.072 719.553 274.852 706.956 250.739L705.778 248.745C705.144 247.386 704.509 246.57 703.966 246.116C703.15 245.482 702.516 245.391 701.972 245.935C701.609 246.207 701.337 246.932 701.156 248.111C700.884 251.193 700.975 255.816 701.337 262.07C701.609 265.787 701.7 268.597 701.7 270.501C701.791 273.402 701.881 277.299 701.881 282.104V282.738C701.881 291.531 701.972 298.33 702.062 303.134C702.153 306.579 702.244 309.117 702.244 310.749C702.334 313.105 702.153 315.462 701.519 317.638C700.884 319.813 699.706 321.626 697.984 323.167C696.081 324.618 693.453 325.524 690.009 325.977C685.841 326.249 681.762 325.887 677.594 324.98C674.241 324.164 671.794 323.077 670.162 321.626C667.353 318.998 665.994 313.921 665.994 306.669C665.994 297.786 666.084 284.189 666.175 266.059C666.175 258.173 666.266 251.646 666.356 246.479C666.356 244.213 666.356 241.403 666.356 238.049V237.233V236.236V234.242V231.613C666.356 228.712 666.356 226.536 666.356 225.177C666.356 223.817 666.356 221.913 666.356 219.375C666.356 214.48 666.356 210.673 666.356 207.954C666.356 207.591 666.356 206.866 666.356 205.959C666.356 200.067 667.262 195.988 668.984 193.54C670.616 191.365 673.153 189.824 676.778 188.736C679.587 187.92 682.669 187.376 685.931 187.104H686.294L689.103 186.923V187.104C690.009 187.104 690.916 187.104 691.731 187.104C697.712 187.467 702.697 189.008 706.503 191.546L706.322 191.184L708.134 192.997H708.316C708.406 193.087 708.588 193.269 708.678 193.359L709.041 193.722V193.903C711.578 196.169 714.206 200.248 717.016 206.141C717.378 207.228 717.741 207.954 718.012 208.316C719.1 210.582 720.822 214.027 723.178 218.469C725.081 221.913 726.441 224.542 727.347 226.264C727.438 226.536 727.709 227.171 728.163 228.077L729.975 231.703C731.153 233.879 732.331 236.054 733.328 238.321L734.325 240.496H734.506V240.859C738.494 248.836 742.934 257.991 747.919 268.235C748.009 268.235 748.1 268.325 748.1 268.416C748.191 268.144 748.372 267.872 748.462 267.6C749.822 264.79 750.456 260.348 750.456 254.184C750.456 253.006 750.456 252.009 750.456 251.374C750.456 244.485 750.366 237.686 750.275 231.159C750.003 216.928 750.456 205.597 751.634 197.348C752.178 193.359 753.356 190.64 755.259 189.189C756.619 188.102 758.613 187.376 761.241 187.014L764.231 186.833C766.859 186.742 769.578 186.742 772.206 187.014C772.75 187.014 773.294 187.104 774.019 187.195V187.014L776.375 187.83H776.738C778.097 188.374 779.184 188.917 780.091 189.461C783.444 191.818 785.347 195.807 785.891 201.246C786.253 205.143 786.344 210.854 786.072 218.469C785.8 222.457 785.709 225.449 785.709 227.443V259.442C785.709 259.986 785.8 260.892 785.891 262.252V262.886V263.521C785.891 265.787 785.981 269.504 786.072 274.761V276.755V276.846H786.706Z" fill="white"/>
<path d="M914.397 302.318L913.672 304.675L913.581 305.128L913.4 305.219C910.953 311.655 906.059 317.003 898.719 321.354C893.281 324.527 887.662 327.065 881.862 328.969C868.178 333.41 855.309 334.136 843.256 331.054C836.369 329.331 830.297 326.521 824.95 322.533C819.603 318.544 815.162 313.558 811.628 307.485C810.631 305.672 809.544 303.587 808.275 301.049L807.55 299.599L807.278 298.873C805.556 294.794 804.106 290.715 803.019 286.545L802.928 285.729L802.475 284.188L802.656 284.098C801.387 278.024 801.025 272.495 801.478 267.419C802.384 258.535 805.375 250.558 810.45 243.306L810.812 243.034L812.262 240.859L812.353 241.04C816.069 236.508 820.419 232.519 825.494 229.165L825.403 228.984L827.578 227.896L827.941 227.624C837.275 222.185 847.244 219.466 857.847 219.375C868.631 219.194 877.331 221.822 884.037 227.171C890.744 232.519 895.094 240.315 897.087 250.739C899.534 262.433 890.834 273.039 871.078 282.557C869.9 283.191 867.997 284.098 865.459 285.276C858.844 288.177 854.131 290.624 851.322 292.8C849.69 294.16 848.784 295.701 848.603 297.242C848.512 298.692 849.056 300.143 850.234 301.593C850.959 302.59 852.047 303.496 853.406 304.131C855.672 305.219 858.39 305.763 861.29 305.763C867.272 305.491 872.891 304.04 878.328 301.321C883.766 298.601 888.478 295.338 892.556 291.531C893.009 291.259 893.553 290.806 894.278 290.353L894.369 290.081L894.731 289.99L896.725 288.449L896.634 288.721C902.162 285.82 906.603 286.001 910.137 289.355C913.944 292.981 915.394 297.332 914.397 302.318ZM862.016 246.026C858.481 245.391 854.494 245.754 850.144 247.113C843.709 249.38 838.997 253.005 835.825 258.082C834.103 260.892 833.831 263.611 835.1 266.149C836.278 268.597 838.453 269.957 841.534 270.41C843.981 270.682 846.79 270.229 849.962 269.05C853.044 267.872 855.853 266.421 858.391 264.971C860.928 263.43 863.103 261.798 864.915 260.076C866.003 258.988 866.909 257.9 867.816 256.631C869.175 254.365 869.628 252.371 869.084 250.739C868.812 249.47 867.906 248.382 866.366 247.657C865.097 246.841 863.647 246.298 862.016 246.026Z" fill="white"/>
<path d="M1000.49 212.939L1000.31 214.299L1000.13 215.115C999.584 217.109 998.769 218.831 997.5 220.282C996.141 222.004 994.509 223.273 992.516 224.089C990.522 224.905 988.8 225.358 987.441 225.449C986.081 225.539 984.088 225.63 981.55 225.63C977.291 225.63 974.209 225.992 972.397 226.627C970.403 227.171 968.681 228.168 967.231 229.709C965.781 231.25 964.694 232.791 963.969 234.332C963.244 235.873 962.7 237.867 962.247 240.405C961.884 242.944 961.613 244.938 961.522 246.479C961.431 248.02 961.341 250.105 961.25 252.734V253.731C961.25 256.631 961.341 261.164 961.613 267.147C961.975 273.855 962.156 278.75 961.975 281.922V283.735C961.703 293.163 960.344 299.78 957.988 303.497C957.172 304.675 956.356 305.672 955.359 306.488C952.459 309.298 948.744 310.658 944.394 310.658C943.488 310.658 942.4 310.567 941.222 310.476L940.406 310.295L938.775 310.114L938.956 309.933C937.234 309.57 935.784 309.026 934.788 308.301C929.078 305.491 926.088 299.689 925.997 290.896V289.718C925.906 285.276 925.634 278.84 925.181 270.319C924.819 263.43 924.547 257.991 924.366 254.093V253.459V251.465C924.366 248.292 924.366 245.119 924.366 242.037L924.547 240.043V239.408C924.638 234.967 924.909 231.159 925.363 227.805C926.813 215.024 934.697 205.869 948.925 200.43C967.413 193.359 982.094 192.996 992.878 199.433L993.875 200.067L994.872 200.702H994.691C998.859 204.056 1000.76 208.044 1000.49 212.939Z" fill="white"/>
<path d="M1109.88 176.77C1111.23 181.575 1111.78 187.739 1111.69 195.353C1111.42 202.243 1111.32 209.676 1111.32 217.562C1111.23 226.264 1111.14 234.423 1111.14 242.128V242.762C1111.14 247.204 1111.14 250.467 1111.14 252.734C1111.42 272.586 1107.25 287.633 1098.73 297.876C1097.55 299.236 1096.01 300.686 1094.11 302.318L1093.93 302.499L1091.3 304.675C1089.94 305.763 1089.48 306.216 1087.31 307.304L1084.32 308.482L1083.96 308.664C1076.62 312.018 1068.28 313.649 1058.94 313.649C1050.97 313.649 1042.99 312.38 1035.2 309.842C1028.04 307.576 1021.52 303.678 1015.81 298.239C1010.1 292.8 1005.66 286.092 1002.58 278.206C997.681 265.968 996.956 253.187 1000.58 239.862C1001.4 236.689 1002.58 233.426 1004.21 230.253L1004.39 229.618L1005.2 227.805H1005.38C1008.74 221.369 1013.09 215.84 1018.62 211.217L1020.25 210.038L1020.61 209.676C1029.76 202.786 1039.91 199.161 1050.97 198.889C1054.96 198.798 1058.94 199.07 1062.93 199.886C1065.29 200.43 1068.1 201.064 1071.09 201.88C1071 200.158 1070.91 197.438 1070.91 193.903L1071.09 192.271C1071.09 191.455 1071.09 190.096 1071.09 188.283C1071 185.11 1071 182.572 1071.09 180.759C1071.18 178.946 1071.72 176.77 1072.45 174.142C1073.26 171.513 1074.44 169.337 1076.07 167.615C1080.6 162.992 1087.13 161.27 1095.65 162.629C1096.46 162.72 1097.28 162.992 1098.27 163.264H1098.46L1098.82 163.445L1100.99 164.261H1100.81C1104.44 166.255 1107.16 169.609 1108.97 174.232L1109.6 176.045L1109.88 176.77ZM1061.66 281.741C1069.09 280.291 1073.08 274.489 1073.44 264.337C1073.44 263.793 1073.53 262.705 1073.63 261.164C1073.63 258.898 1073.62 257.175 1073.72 255.997C1073.81 254.819 1073.81 253.187 1073.72 251.102C1073.62 249.017 1073.44 247.295 1073.08 245.935C1072.72 244.575 1072.27 243.034 1071.72 241.403C1071.09 239.771 1070.36 238.411 1069.46 237.233C1068.64 236.326 1067.83 235.601 1067.1 235.057C1064.74 232.882 1061.75 231.794 1058.31 231.703L1057.95 231.522C1057.67 231.522 1057.4 231.522 1057.13 231.522C1052.96 231.522 1049.43 232.7 1046.35 235.148C1041.82 238.593 1039.01 244.031 1037.92 251.374C1036.83 258.716 1037.56 265.243 1040.09 270.954C1040.64 272.404 1041.18 273.673 1041.91 274.761C1043.36 277.571 1045.08 279.475 1046.98 280.472C1048.88 281.469 1051.51 282.104 1054.68 282.376C1057.22 282.194 1059.58 282.104 1061.66 281.741Z" fill="white"/>
<path d="M306.484 488.238C308.388 492.951 309.294 498.209 309.294 504.01C309.294 510.446 308.025 516.339 305.578 521.596C303.041 526.854 299.325 531.386 294.341 535.103C289.356 538.91 283.284 541.811 276.125 543.986C268.331 546.252 260.084 547.431 251.475 547.431C241.144 547.431 231.447 545.799 222.384 542.627C217.672 540.995 213.866 539.091 211.056 536.734C208.247 534.559 206.163 532.111 204.803 529.301L203.988 527.488C203.897 527.126 203.716 526.672 203.625 526.31C202.447 521.959 202.809 517.88 204.803 513.982H204.622L205.8 512.35V512.169L205.981 511.806C206.797 510.718 207.613 509.812 208.428 509.177C210.422 507.818 212.959 507.274 215.859 507.546C218.397 507.818 221.931 508.996 226.372 511.172C227.731 511.715 228.728 512.078 229.363 512.35C236.341 515.432 243.319 516.973 250.388 516.973C250.478 516.973 250.75 516.973 251.022 516.973H251.656C254.738 516.882 257.547 516.429 260.175 515.795C261.534 515.432 262.894 514.888 264.253 514.163C266.7 512.985 268.513 511.262 269.691 509.087C271.141 506.549 271.503 503.829 270.688 501.019C270.144 499.025 268.966 497.212 267.244 495.761C265.522 494.311 263.891 493.223 262.441 492.589C260.991 491.954 258.816 491.32 256.006 490.504L254.375 489.869C253.559 489.597 252.381 489.235 250.75 488.691L247.941 487.875C241.234 485.699 236.069 483.977 232.625 482.617L229.634 481.439C220.753 477.36 214.138 472.374 209.878 466.482C205.981 460.953 203.806 454.426 203.444 446.902C202.9 437.112 205.528 428.319 211.328 420.614V420.433L213.956 417.169V417.532C215.316 416.082 216.675 414.813 218.034 413.815C219.394 412.818 220.934 411.731 222.656 410.643H222.475L225.919 409.011L226.281 408.83C234.8 404.751 245.222 402.756 257.819 402.756C264.253 402.756 270.234 403.119 275.581 403.935C277.303 404.297 279.388 404.841 281.653 405.385L282.288 405.566L284.281 406.201C287.634 407.289 290.534 408.467 292.981 409.827C293.072 409.918 293.434 410.19 293.978 410.643V410.461L295.791 411.912L296.153 412.274C299.234 414.813 301.228 417.713 302.225 420.977C303.041 423.696 303.131 426.597 302.406 429.679C302.044 431.854 301.228 433.486 300.141 434.483C298.419 436.477 295.609 437.384 291.894 437.112C286.909 436.84 279.659 435.934 270.053 434.302C263.347 433.124 257.547 432.942 252.653 433.939C248.847 434.755 246.038 436.387 244.134 438.744C242.413 441.01 241.778 443.367 242.322 445.814C243.138 448.806 245.131 450.891 248.394 452.25C251.656 453.61 256.55 455.423 263.166 457.689C272.953 461.043 280.294 463.944 285.006 466.391C287.453 467.751 289.9 469.292 292.438 471.014L293.616 471.83L294.25 472.193V472.374C295.881 473.553 297.241 474.731 298.509 475.819C300.231 477.541 301.863 479.626 303.313 482.073H303.494L303.856 482.889L304.491 483.886V484.068C305.397 485.609 306.031 486.969 306.484 488.238Z" fill="white"/>
<path d="M433.269 436.84C434.719 442.46 435.263 447.808 434.719 452.794C434.538 454.788 434.266 456.873 433.722 458.868C431.728 466.119 428.375 473.099 423.662 479.898L422.938 480.623L422.303 481.62C419.494 485.246 416.322 488.691 412.787 491.954L412.153 492.589L411.156 493.404C398.65 504.282 385.056 509.812 370.375 509.812C364.484 509.812 358.684 508.815 353.247 506.82C347.447 504.826 342.191 501.835 337.478 497.937C336.934 497.393 336.481 496.94 336.028 496.487C328.234 489.507 323.159 480.442 320.984 469.292C318.719 458.142 319.716 447.083 323.884 436.024C327.419 426.959 332.494 419.164 339.2 412.365C345.906 405.657 353.609 400.762 362.219 397.861L363.034 397.68L364.484 397.317C368.834 395.958 373.184 395.233 377.625 395.051H379.075H379.891C389.225 395.051 398.106 397.318 406.534 401.941C410.703 404.207 414.419 406.926 417.681 410.008C418.316 410.643 419.131 411.549 420.128 412.637L420.762 413.272L421.759 414.45C426.744 420.523 430.369 427.231 432.634 434.665L432.997 436.296L433.269 436.84ZM360.769 463.853C362.128 466.845 364.031 469.292 366.659 471.286C369.197 473.281 372.006 474.55 375.178 474.912C380.434 475.547 384.694 473.734 388.137 469.292C390.675 466.029 392.669 462.403 394.119 458.324C395.569 454.245 396.113 449.803 395.75 445.089C395.388 440.375 393.666 436.387 390.584 433.214C387.322 429.86 383.425 428.5 378.894 429.135C375.631 429.498 372.55 430.857 369.469 433.214C366.478 435.48 364.031 438.29 362.309 441.735C361.403 443.367 360.678 444.908 360.316 446.358C358.956 451.706 358.866 456.601 359.953 460.862C360.044 461.768 360.316 462.856 360.769 463.853Z" fill="white"/>
<path d="M542.381 405.748C549.088 412.365 551.897 420.433 550.9 429.951C550.628 433.033 549.541 435.752 547.638 437.928C545.734 440.194 543.288 441.372 540.388 441.463C539.572 441.463 538.666 441.372 537.76 441.282H537.397L534.95 440.919H535.131C532.141 440.103 528.788 438.381 525.072 435.662L523.894 434.846L523.531 434.664L523.169 434.302L521.719 433.305C519.272 431.582 517.46 430.223 516.191 429.407C514.922 428.5 513.291 427.685 511.206 426.869C509.213 426.053 507.31 425.69 505.588 425.872C502.597 425.872 499.697 427.05 496.706 429.316C492.356 432.398 489.003 436.84 486.647 442.642C483.566 450.347 482.66 458.052 484.019 465.847V466.029C485.469 474.096 489.185 479.717 495.166 482.799C497.703 484.158 500.603 484.793 503.866 484.612C508.034 484.612 513.019 483.433 518.819 480.986C520.541 480.17 522.988 478.991 526.069 477.541C527.7 476.725 528.969 476.091 529.875 475.728C536.219 472.737 541.022 473.371 544.194 477.541C546.46 480.26 547.456 484.068 547.094 488.963C546.731 493.858 545.281 498.118 542.563 501.563C536.128 510.084 525.434 514.254 510.481 514.254C504.138 514.254 497.613 513.438 490.906 511.806L490.272 511.625L488.459 511.262C487.281 510.99 486.194 510.718 485.469 510.446C483.203 509.631 480.666 508.633 477.766 507.455L475.5 506.458C468.069 502.56 461.906 497.484 456.922 491.32C451.938 485.155 448.494 478.085 446.591 470.289C443.328 456.783 444.688 443.82 450.488 431.31C456.288 418.801 465.803 408.92 478.853 401.578C484.472 398.315 490.453 395.958 496.797 394.507L497.794 394.326L498.972 394.145C507.491 392.513 515.466 392.694 522.988 394.779L524.981 395.414C531.688 397.408 537.488 400.943 542.381 405.748Z" fill="white"/>
<path d="M571.019 382.904C569.297 379.822 568.481 376.559 568.753 373.205C569.116 368.854 570.928 365.047 574.009 361.693L574.825 360.877L575.641 360.242C578.359 357.795 581.441 356.163 584.975 355.166C588.509 354.26 591.863 353.988 595.034 354.532C600.019 355.619 603.553 358.429 605.728 363.052L606.906 365.681C606.997 366.316 607.178 366.95 607.269 367.494C607.903 370.848 607.631 374.293 606.272 377.828L605.275 379.822L605.094 380.185C601.741 386.349 596.938 390.247 590.775 391.879C589.325 392.241 587.784 392.513 586.334 392.513C582.981 392.513 579.9 391.516 577 389.522C576.094 388.887 575.097 388.071 574.191 387.074C573.556 386.44 572.831 385.624 572.197 384.627L571.563 383.811L571.019 382.904ZM606.906 457.326C607.269 465.304 607.541 471.558 607.541 476.091V478.085V478.719C607.45 488.691 606.363 496.486 604.55 502.197L604.188 503.194L603.825 504.373C603.281 505.461 602.828 506.367 602.375 507.002C600.2 510.809 597.391 513.166 594.128 513.982L593.675 514.072C593.041 514.254 592.406 514.344 591.681 514.435C590.866 514.435 590.322 514.435 590.05 514.435C587.331 514.435 584.431 513.8 581.35 512.622C577.181 510.99 574.372 508.271 573.013 504.463C571.563 500.656 570.838 496.033 570.656 490.594C570.566 486.696 570.566 480.804 570.656 472.827C570.656 460.862 570.566 451.797 570.294 445.724C570.113 444.908 570.113 443.729 570.113 442.098C569.841 439.559 569.75 437.384 569.75 435.662V434.483C569.659 424.693 571.019 416.082 574.372 410.824C574.463 410.733 574.553 410.552 574.553 410.552C574.553 410.461 574.644 410.461 574.734 410.461H574.553L575.369 409.464L576.003 408.83C580.444 403.753 586.063 401.487 592.769 402.122C598.841 402.756 603.191 405.748 605.91 411.005C607.631 414.541 608.628 418.71 608.719 423.515C608.81 428.319 608.538 432.761 607.722 436.659C607.088 441.735 606.725 445.542 606.725 447.99C606.725 449.44 606.816 451.978 606.906 455.423V457.326Z" fill="white"/>
<path d="M713.663 495.671L711.397 497.665C706.05 502.107 699.072 504.373 690.372 504.463C684.028 504.554 677.866 503.92 671.794 502.741C657.566 499.84 645.875 494.039 636.813 485.246C631.647 480.351 627.659 474.822 624.941 468.567C622.222 462.403 620.863 455.785 620.772 448.715C620.772 446.63 620.863 444.998 620.953 442.098L621.316 438.925C621.769 434.483 622.403 431.31 623.581 427.141L624.125 425.328L624.669 423.787C626.572 417.895 629.019 412.818 631.919 408.558C637.084 401.215 643.791 395.686 651.856 391.788L652.309 391.697L654.575 390.7C660.103 388.525 665.903 387.255 672.066 386.893L674.603 386.802C685.478 386.712 696.081 389.159 705.416 394.326C714.931 399.584 721.275 406.201 724.538 414.178C727.8 422.155 727.709 431.31 724.175 441.463C720.459 452.975 707.5 457.961 685.478 456.42C684.119 456.42 682.034 456.239 679.225 455.967C671.975 455.151 666.538 455.06 663.003 455.514C660.828 455.876 659.288 456.783 658.381 458.052C657.566 459.23 657.294 460.771 657.656 462.675C657.838 463.944 658.291 465.213 659.106 466.482C660.556 468.567 662.641 470.38 665.178 471.83C670.525 474.55 676.234 476.091 682.397 476.453C687.834 476.816 693.091 476.453 698.075 475.365C699.072 475.184 700.159 475.003 701.156 474.822C701.428 474.822 701.609 474.731 701.881 474.731L702.516 474.64C703.241 474.55 703.966 474.55 704.691 474.459C710.944 474.64 714.841 477.088 716.2 481.801C717.922 487.24 717.016 491.863 713.663 495.671ZM695.719 420.07C692.909 417.713 689.284 416.082 684.753 415.175C677.956 413.906 671.975 414.722 666.719 417.713C663.819 419.345 662.188 421.52 662.097 424.421C661.916 427.141 663.094 429.407 665.631 431.31C667.625 432.851 670.344 433.849 673.697 434.302C677.05 434.755 680.222 434.936 683.122 434.936C686.113 434.846 688.831 434.483 691.278 433.939C692.728 433.577 694.178 433.033 695.538 432.308C697.894 431.039 699.163 429.498 699.525 427.775C699.888 426.506 699.616 425.146 698.709 423.696C697.984 422.336 696.988 421.158 695.719 420.07Z" fill="white"/>
<path d="M805.284 475.909C807.55 477.813 808.909 480.351 809.272 483.524C809.363 483.977 809.363 484.43 809.363 484.883C809.363 485.246 809.363 485.609 809.272 485.881C809.181 489.235 808.003 492.589 806.1 494.855C802.022 499.931 794.953 502.832 784.712 503.376C783.353 503.466 781.994 503.557 780.634 503.557C767.947 503.557 758.159 500.566 751.181 494.492L748.734 492.226H748.916C748.1 491.229 747.284 490.322 746.65 489.325C746.378 488.872 746.106 488.419 745.834 487.965C745.653 487.603 745.381 487.15 745.109 486.696V486.878L743.931 483.886H743.75V483.524C741.756 478.538 740.759 470.742 740.759 460.046C740.759 454.154 740.759 446.811 740.759 438.018V425.871C740.759 423.968 740.759 421.067 740.759 416.988C740.85 411.096 740.85 406.473 740.759 403.209V391.606C740.759 391.244 740.759 390.881 740.669 390.519L740.578 389.25C740.578 388.887 740.488 388.524 740.488 388.071C740.488 384.717 740.578 381.907 740.669 379.641C740.759 377.284 741.484 374.565 742.753 371.573C744.022 368.582 745.925 366.225 748.553 364.593C752.45 362.146 756.075 361.239 760.606 362.146C760.969 362.236 761.241 362.236 761.603 362.327L762.147 362.418L764.503 363.143C765.319 363.415 766.134 363.687 766.859 364.14C767.131 364.321 767.403 364.503 767.584 364.593C769.034 365.5 770.303 366.678 771.391 368.038L773.384 371.301C774.472 373.477 775.288 377.012 775.831 381.998L776.013 382.632C776.284 384.808 776.828 386.53 777.553 387.89C778.278 389.25 779.456 390.247 781.087 391.063C782.719 391.788 784.078 392.241 785.256 392.513C786.434 392.694 788.156 392.966 790.603 393.238C795.859 393.873 799.666 394.87 801.931 396.048C804.469 397.408 806.463 399.674 807.913 402.847C809.181 405.748 809.725 408.648 809.544 411.458C809.544 411.912 809.453 412.456 809.272 412.909C808.819 414.722 808.184 416.263 807.278 417.441C806.281 418.801 804.922 419.798 803.381 420.342C801.75 420.976 800.3 421.43 798.941 421.611C797.581 421.883 795.95 421.974 794.137 421.974H792.506C789.153 422.064 786.706 422.336 785.256 422.789C781.088 423.696 778.187 426.506 776.556 431.038C775.106 435.39 774.834 443.004 775.922 454.063C776.194 457.417 776.375 459.774 776.556 461.134C776.647 465.485 778.097 468.657 780.816 470.833C783.806 473.371 787.975 474.459 793.503 474.096C794.591 474.006 795.587 473.824 796.494 473.734C800.028 473.28 802.928 473.915 805.284 475.909Z" fill="white"/>
<path d="M930.438 402.212C930.981 406.563 930.075 413.09 927.628 421.974C927.266 423.877 926.903 425.237 926.631 426.053C926.631 426.415 926.541 426.959 926.269 427.503L925.453 430.767C924.909 433.214 924.275 435.662 923.459 438.2L922.644 440.466L922.463 441.1C920.559 447.174 917.931 454.426 914.578 462.947C910.409 473.462 906.059 482.98 901.619 491.41L900.803 493.042C898.628 496.94 896.272 501.291 894.097 504.735L892.919 506.73C887.3 515.613 881.319 523.228 875.156 529.573C873.253 531.749 871.078 533.561 868.722 535.012C866.275 536.462 863.738 537.641 861.019 538.547C858.3 539.454 855.672 539.816 853.134 539.816C849.237 539.816 845.884 538.728 843.075 536.553L841.263 534.921C839.359 532.927 837.909 530.389 836.822 527.488C836.459 526.31 836.188 525.041 836.006 523.862V521.596C836.278 519.602 837.003 517.879 838.272 516.429C839.45 514.979 841.263 513.438 843.528 511.715C845.703 510.084 847.244 508.815 848.15 507.908C849.328 506.73 850.869 504.645 852.591 501.835C853.769 499.84 854.766 498.299 855.4 497.393C856.034 495.489 856.034 493.404 855.219 491.138C854.403 488.419 852.5 484.702 849.328 479.807C846.791 476 845.069 473.099 844.253 471.105C840.719 463.672 836.822 453.972 832.563 442.007C832.019 440.647 831.203 438.472 830.116 435.571C825.131 422.608 822.412 412.728 821.869 405.838C821.325 400.581 822.322 396.23 824.859 392.694C825.766 391.335 826.853 390.247 828.122 389.431C831.384 387.255 835.553 386.53 840.809 387.165C842.531 387.527 844.253 387.981 845.884 388.615L847.606 389.25C849.328 390.066 850.778 390.972 851.866 392.06C853.769 393.963 855.4 397.317 856.941 402.122C859.75 410.733 862.741 420.07 865.822 430.041L866.819 433.305C867.181 434.664 867.816 436.84 868.631 439.741C870.353 446.902 872.256 451.888 874.25 454.879L874.431 455.06C874.794 455.695 875.156 456.239 875.428 456.511C876.606 457.689 877.512 458.052 878.056 457.508C878.147 457.417 878.419 457.054 878.691 456.511C881.772 449.077 885.397 437.384 889.384 421.339C889.928 419.073 890.472 416.988 891.016 415.266L891.378 413.453C892.194 410.099 892.828 407.561 893.372 405.748C893.916 404.025 894.822 401.668 896.181 398.858C897.541 396.048 898.9 393.873 900.441 392.422C901.891 390.972 903.975 389.703 906.603 388.706C909.231 387.709 912.131 387.255 915.394 387.437C916.572 387.527 918.656 388.071 920.016 388.434C924.366 390.156 926.178 392.15 927.719 394.326C928.625 395.958 929.441 397.861 929.984 399.946L930.166 401.125L930.438 402.212Z" fill="white"/>
</svg>
